<svg width="135" height="29" viewBox="0 0 135 29" fill="none" xmlns="http://www.w3.org/2000/svg">
    <path
        d="M12.7388 28.8864C19.2443 28.8864 23.3706 24.5924 23.9282 19.1204H18.761C18.2777 21.9324 16.4562 24.1744 12.7388 24.1744C7.94339 24.1744 5.67578 20.6404 5.67578 15.2824C5.67578 9.92444 7.94339 6.35244 12.7388 6.35244C16.6049 6.35244 18.4636 8.78444 18.7238 11.6344H23.9282C23.5193 6.01044 19.2814 1.60244 12.7388 1.60244C4.63491 1.60244 0.471436 7.45444 0.471436 15.2824C0.471436 22.9964 4.63491 28.8864 12.7388 28.8864ZM26.6667 28.5444H31.3878V18.8544C31.3878 15.2824 33.0978 13.1924 36.0717 13.1924H37.8189V8.48044H36.4063C33.9528 8.48044 32.2428 9.92444 31.3878 11.7864H31.2391L30.8674 8.78444H26.6667V28.5444ZM48.1717 28.8864C53.1532 28.8864 56.313 25.9604 56.8335 22.3884H51.9637C51.5919 23.6044 50.4024 24.6684 48.1717 24.6684C45.3093 24.6684 43.9711 22.7684 43.9339 20.0704H57.0937V18.0944C57.0937 12.6984 53.8595 8.44244 48.0974 8.44244C41.8893 8.44244 38.8411 13.0784 38.8411 18.7024C38.8411 24.4024 42.1867 28.8864 48.1717 28.8864ZM43.9711 16.6884C44.0826 14.4464 45.3093 12.6984 48.0974 12.6984C50.6998 12.6984 51.9265 14.4464 52.0008 16.6884H43.9711ZM66.438 28.8864C69.1889 28.8864 70.7874 27.7084 71.7539 26.4164H71.9026L72.423 28.5444H76.8839V0.424438H71.9026V10.9124H71.7539C70.7874 9.62044 69.1889 8.44244 66.438 8.44244C61.3824 8.44244 58.4828 12.7744 58.4828 18.6644C58.4828 24.7064 61.4939 28.8864 66.438 28.8864ZM67.8135 24.4024C64.6908 24.4024 63.5384 21.7424 63.5384 18.6644C63.5384 15.5484 64.6165 12.9264 67.8135 12.9264C70.9732 12.9264 72.0884 15.5864 72.0884 18.6644C72.0884 21.7424 70.9361 24.4024 67.8135 24.4024ZM79.8876 5.97244H85.2407V0.652439H79.8876V5.97244ZM80.0735 28.5444H85.0548V8.78444H80.0735V28.5444ZM98.7632 28.8864C103.67 28.8864 106.681 24.7064 106.681 18.6644C106.681 12.7744 103.782 8.44244 98.7632 8.44244C95.9751 8.44244 94.3767 9.62044 93.4101 10.9124H93.2614V0.424438H88.2801V28.5444H92.741L93.2614 26.4164H93.4101C94.3767 27.7084 95.9751 28.8864 98.7632 28.8864ZM97.3506 24.4024C94.2651 24.4024 93.0756 21.7424 93.0756 18.6644C93.0756 15.5864 94.1908 12.9264 97.3506 12.9264C100.548 12.9264 101.626 15.5484 101.626 18.6644C101.626 21.7424 100.51 24.4024 97.3506 24.4024ZM109.156 28.5444H114.137V0.424438H109.156V28.5444ZM125.615 28.8864C130.596 28.8864 133.756 25.9604 134.277 22.3884H129.407C129.035 23.6044 127.845 24.6684 125.615 24.6684C122.753 24.6684 121.414 22.7684 121.377 20.0704H134.537V18.0944C134.537 12.6984 131.303 8.44244 125.541 8.44244C119.333 8.44244 116.284 13.0784 116.284 18.7024C116.284 24.4024 119.63 28.8864 125.615 28.8864ZM121.414 16.6884C121.526 14.4464 122.753 12.6984 125.541 12.6984C128.143 12.6984 129.37 14.4464 129.444 16.6884H121.414Z"
        fill="#274A72" />
</svg>
