<svg width="161" height="14" viewBox="0 0 161 14" fill="none" xmlns="http://www.w3.org/2000/svg">
    <path
        d="M1.77699 1.36364H0.299716L4.57244 13H6.02699L10.2997 1.36364H8.82244L5.3679 11.1591H5.23153L1.77699 1.36364ZM14.777 13.1818C16.5497 13.1818 17.8452 12.2955 18.2543 10.9773L16.9588 10.6136C16.6179 11.5227 15.8281 11.9773 14.777 11.9773C13.2031 11.9773 12.1179 10.9602 12.0554 9.09091H18.3906V8.52273C18.3906 5.27273 16.4588 4.15909 14.6406 4.15909C12.277 4.15909 10.7088 6.02273 10.7088 8.70455C10.7088 11.3864 12.2543 13.1818 14.777 13.1818ZM12.0554 7.93182C12.1463 6.57386 13.1065 5.36364 14.6406 5.36364C16.0952 5.36364 17.027 6.45455 17.027 7.93182H12.0554ZM20.4304 13H21.7713V7.47727C21.7713 6.29545 22.7031 5.43182 23.9759 5.43182C24.3338 5.43182 24.7031 5.5 24.794 5.52273V4.15909C24.6406 4.14773 24.2884 4.13636 24.0895 4.13636C23.044 4.13636 22.1349 4.72727 21.8168 5.59091H21.7259V4.27273H20.4304V13ZM26.3835 13H27.7244V4.27273H26.3835V13ZM27.0653 2.81818C27.5881 2.81818 28.0199 2.40909 28.0199 1.90909C28.0199 1.40909 27.5881 1 27.0653 1C26.5426 1 26.1108 1.40909 26.1108 1.90909C26.1108 2.40909 26.5426 2.81818 27.0653 2.81818ZM34.0668 4.27273H32.1122V3.38636C32.1122 2.52273 32.4759 2.06818 33.3622 2.06818C33.7486 2.06818 33.9759 2.15909 34.1122 2.20455L34.4986 1.04545C34.294 0.954545 33.8849 0.818181 33.2259 0.818181C31.9759 0.818181 30.7713 1.56818 30.7713 3.06818V4.27273H29.3622V5.40909H30.7713V13H32.1122V5.40909H34.0668V4.27273ZM35.946 13H37.2869V4.27273H35.946V13ZM36.6278 2.81818C37.1506 2.81818 37.5824 2.40909 37.5824 1.90909C37.5824 1.40909 37.1506 1 36.6278 1C36.1051 1 35.6733 1.40909 35.6733 1.90909C35.6733 2.40909 36.1051 2.81818 36.6278 2.81818ZM42.3111 13.2045C43.8338 13.2045 44.6293 12.3864 44.902 11.8182H44.9702V13H46.3111V7.25C46.3111 4.47727 44.1974 4.15909 43.0838 4.15909C41.7656 4.15909 40.2656 4.61364 39.5838 6.20455L40.8565 6.65909C41.152 6.02273 41.8509 5.34091 43.1293 5.34091C44.3622 5.34091 44.9702 5.99432 44.9702 7.11364V7.15909C44.9702 7.80682 44.3111 7.75 42.7202 7.95455C41.1009 8.16477 39.3338 8.52273 39.3338 10.5227C39.3338 12.2273 40.652 13.2045 42.3111 13.2045ZM42.5156 12C41.4474 12 40.6747 11.5227 40.6747 10.5909C40.6747 9.56818 41.6065 9.25 42.652 9.11364C43.2202 9.04545 44.7429 8.88636 44.9702 8.61364V9.84091C44.9702 10.9318 44.1065 12 42.5156 12ZM48.9403 13H50.2358V11.6591H50.3949C50.6903 12.1364 51.2585 13.1818 52.9403 13.1818C55.1222 13.1818 56.6449 11.4318 56.6449 8.65909C56.6449 5.90909 55.1222 4.15909 52.9176 4.15909C51.2131 4.15909 50.6903 5.20455 50.3949 5.65909H50.2812V1.36364H48.9403V13ZM50.2585 8.63636C50.2585 6.68182 51.1222 5.36364 52.7585 5.36364C54.4631 5.36364 55.304 6.79545 55.304 8.63636C55.304 10.5 54.4403 11.9773 52.7585 11.9773C51.1449 11.9773 50.2585 10.6136 50.2585 8.63636ZM60.0369 1.36364H58.696V13H60.0369V1.36364ZM66.152 13.1818C67.9247 13.1818 69.2202 12.2955 69.6293 10.9773L68.3338 10.6136C67.9929 11.5227 67.2031 11.9773 66.152 11.9773C64.5781 11.9773 63.4929 10.9602 63.4304 9.09091H69.7656V8.52273C69.7656 5.27273 67.8338 4.15909 66.0156 4.15909C63.652 4.15909 62.0838 6.02273 62.0838 8.70455C62.0838 11.3864 63.6293 13.1818 66.152 13.1818ZM63.4304 7.93182C63.5213 6.57386 64.4815 5.36364 66.0156 5.36364C67.4702 5.36364 68.402 6.45455 68.402 7.93182H63.4304ZM85.8509 5C85.419 2.61364 83.5099 1.20455 81.169 1.20455C78.1918 1.20455 76.0327 3.5 76.0327 7.18182C76.0327 10.8636 78.1918 13.1591 81.169 13.1591C83.5099 13.1591 85.419 11.75 85.8509 9.36364H84.4418C84.1009 10.9773 82.7145 11.8409 81.169 11.8409C79.0554 11.8409 77.3963 10.2045 77.3963 7.18182C77.3963 4.15909 79.0554 2.52273 81.169 2.52273C82.7145 2.52273 84.1009 3.38636 84.4418 5H85.8509ZM87.946 13H89.2869V7.47727C89.2869 6.29545 90.2188 5.43182 91.4915 5.43182C91.8494 5.43182 92.2188 5.5 92.3097 5.52273V4.15909C92.1562 4.14773 91.804 4.13636 91.6051 4.13636C90.5597 4.13636 89.6506 4.72727 89.3324 5.59091H89.2415V4.27273H87.946V13ZM97.2926 13.1818C99.0653 13.1818 100.361 12.2955 100.77 10.9773L99.4744 10.6136C99.1335 11.5227 98.3438 11.9773 97.2926 11.9773C95.7188 11.9773 94.6335 10.9602 94.571 9.09091H100.906V8.52273C100.906 5.27273 98.9744 4.15909 97.1562 4.15909C94.7926 4.15909 93.2244 6.02273 93.2244 8.70455C93.2244 11.3864 94.7699 13.1818 97.2926 13.1818ZM94.571 7.93182C94.6619 6.57386 95.6222 5.36364 97.1562 5.36364C98.6108 5.36364 99.5426 6.45455 99.5426 7.93182H94.571ZM106.241 13.1818C107.923 13.1818 108.491 12.1364 108.787 11.6591H108.946V13H110.241V1.36364H108.901V5.65909H108.787C108.491 5.20455 107.969 4.15909 106.264 4.15909C104.06 4.15909 102.537 5.90909 102.537 8.65909C102.537 11.4318 104.06 13.1818 106.241 13.1818ZM106.423 11.9773C104.741 11.9773 103.878 10.5 103.878 8.63636C103.878 6.79545 104.719 5.36364 106.423 5.36364C108.06 5.36364 108.923 6.68182 108.923 8.63636C108.923 10.6136 108.037 11.9773 106.423 11.9773ZM116.543 13.1818C118.315 13.1818 119.611 12.2955 120.02 10.9773L118.724 10.6136C118.384 11.5227 117.594 11.9773 116.543 11.9773C114.969 11.9773 113.884 10.9602 113.821 9.09091H120.156V8.52273C120.156 5.27273 118.224 4.15909 116.406 4.15909C114.043 4.15909 112.474 6.02273 112.474 8.70455C112.474 11.3864 114.02 13.1818 116.543 13.1818ZM113.821 7.93182C113.912 6.57386 114.872 5.36364 116.406 5.36364C117.861 5.36364 118.793 6.45455 118.793 7.93182H113.821ZM123.537 7.75C123.537 6.22727 124.48 5.36364 125.764 5.36364C127.009 5.36364 127.764 6.17614 127.764 7.54545V13H129.105V7.45455C129.105 5.22727 127.918 4.15909 126.151 4.15909C124.832 4.15909 124.014 4.75 123.605 5.63636H123.491V4.27273H122.196V13H123.537V7.75ZM135.351 4.27273H133.487V2.18182H132.146V4.27273H130.828V5.40909H132.146V10.8636C132.146 12.3864 133.374 13.1136 134.51 13.1136C135.01 13.1136 135.328 13.0227 135.51 12.9545L135.237 11.75C135.124 11.7727 134.942 11.8182 134.646 11.8182C134.055 11.8182 133.487 11.6364 133.487 10.5V5.40909H135.351V4.27273ZM137.368 13H138.709V4.27273H137.368V13ZM138.05 2.81818C138.572 2.81818 139.004 2.40909 139.004 1.90909C139.004 1.40909 138.572 1 138.05 1C137.527 1 137.095 1.40909 137.095 1.90909C137.095 2.40909 137.527 2.81818 138.05 2.81818ZM143.733 13.2045C145.256 13.2045 146.051 12.3864 146.324 11.8182H146.392V13H147.733V7.25C147.733 4.47727 145.619 4.15909 144.506 4.15909C143.188 4.15909 141.688 4.61364 141.006 6.20455L142.278 6.65909C142.574 6.02273 143.273 5.34091 144.551 5.34091C145.784 5.34091 146.392 5.99432 146.392 7.11364V7.15909C146.392 7.80682 145.733 7.75 144.142 7.95455C142.523 8.16477 140.756 8.52273 140.756 10.5227C140.756 12.2273 142.074 13.2045 143.733 13.2045ZM143.938 12C142.869 12 142.097 11.5227 142.097 10.5909C142.097 9.56818 143.028 9.25 144.074 9.11364C144.642 9.04545 146.165 8.88636 146.392 8.61364V9.84091C146.392 10.9318 145.528 12 143.938 12ZM151.521 1.36364H150.18V13H151.521V1.36364ZM160.159 6.22727C159.739 4.98864 158.795 4.15909 157.068 4.15909C155.227 4.15909 153.864 5.20455 153.864 6.68182C153.864 7.88636 154.58 8.69318 156.182 9.06818L157.636 9.40909C158.517 9.61364 158.932 10.0341 158.932 10.6364C158.932 11.3864 158.136 12 156.886 12C155.79 12 155.102 11.5284 154.864 10.5909L153.591 10.9091C153.903 12.392 155.125 13.1818 156.909 13.1818C158.938 13.1818 160.318 12.0739 160.318 10.5682C160.318 9.35227 159.557 8.58523 158 8.20455L156.705 7.88636C155.67 7.63068 155.205 7.28409 155.205 6.61364C155.205 5.86364 156 5.31818 157.068 5.31818C158.239 5.31818 158.722 5.96591 158.955 6.56818L160.159 6.22727Z"
        fill="#3E3F42" />
</svg>
