<?xml version="1.0" encoding="UTF-8"?>
<svg version="1.1" xmlns="http://www.w3.org/2000/svg" width="1068" height="1072">
<path d="M0 0 C352.44 0 704.88 0 1068 0 C1068 353.76 1068 707.52 1068 1072 C715.56 1072 363.12 1072 0 1072 C0 718.24 0 364.48 0 0 Z " fill="#FEFEFE" transform="translate(0,0)"/>
<path d="M0 0 C2.28132252 0.00317835 4.56136347 -0.02050605 6.8425293 -0.0456543 C16.9800562 -0.08823123 26.31657477 1.10172937 36.21557617 3.31567383 C37.25407715 3.53835937 38.29257812 3.76104492 39.36254883 3.99047852 C61.5037238 8.88305104 82.16620439 18.66325534 100.21557617 32.31567383 C101.12178711 32.99887695 102.02799805 33.68208008 102.96166992 34.38598633 C136.1398397 60.4855045 158.01769758 99.39973467 163.21557617 141.31567383 C165.7865022 192.42922929 152.09801314 238.33795835 117.69702148 276.69360352 C114.02800216 280.71090153 110.33371929 284.75536683 106.21557617 288.31567383 C105.55557617 288.31567383 104.89557617 288.31567383 104.21557617 288.31567383 C104.21557617 289.30567383 104.21557617 290.29567383 104.21557617 291.31567383 C101.91909134 293.12354486 99.6568704 294.72467081 97.21557617 296.31567383 C95.72714124 297.31153792 94.238864 298.30763774 92.75073242 299.30395508 C91.98905762 299.80878418 91.22738281 300.31361328 90.44262695 300.83374023 C87.15489411 303.02147739 83.90364331 305.26074993 80.65307617 307.50317383 C80.00733643 307.94701416 79.36159668 308.39085449 78.69628906 308.84814453 C69.8389021 314.93898716 61.02423562 321.09156935 52.20336914 327.23510742 C47.37536844 330.59711281 42.5453963 333.95628301 37.71557617 337.31567383 C35.79889955 338.64899285 33.88223289 339.9823262 31.96557617 341.31567383 C-48.53442384 397.31567384 -48.53442384 397.31567384 -51.41015625 399.31616211 C-53.32440806 400.64782968 -55.23863337 401.97953533 -57.15283203 403.3112793 C-61.98122815 406.67041358 -66.81010089 410.02885885 -71.63989258 413.38598633 C-81.50575878 420.24460989 -91.36540337 427.11172239 -101.20239258 434.01171875 C-105.73430398 437.18849091 -110.27555463 440.35109915 -114.82739258 443.49926758 C-115.85026367 444.20760742 -116.87313477 444.91594727 -117.92700195 445.64575195 C-119.89424765 447.00730302 -121.86290126 448.36682313 -123.83325195 449.72387695 C-128.88623838 453.22320492 -133.7880238 456.84392889 -138.61523438 460.64746094 C-142.16971006 463.38102676 -145.87852214 465.87473088 -149.59692383 468.37817383 C-156.27760617 472.91299992 -162.92596941 477.48868574 -169.53442383 482.12817383 C-176.71138195 487.16427796 -183.89818723 492.18573943 -191.09692383 497.19067383 C-192.05695313 497.8581665 -193.01698242 498.52565918 -194.00610352 499.21337891 C-195.9577096 500.57014615 -197.90936992 501.92683536 -199.86108398 503.28344727 C-204.66972545 506.62628438 -209.47701275 509.97106764 -214.28442383 513.31567383 C-216.20108386 514.6490167 -218.11775053 515.98235003 -220.03442383 517.31567383 C-220.98317383 517.97567383 -221.93192383 518.63567383 -222.90942383 519.31567383 C-323.53442379 589.3156738 -323.53442379 589.3156738 -326.41259766 591.31787109 C-328.31869818 592.64386111 -330.22478554 593.96987006 -332.13085938 595.29589844 C-337.08407718 598.74174418 -342.03756109 602.1872065 -346.99145508 605.63208008 C-348.52479492 606.69845703 -348.52479492 606.69845703 -350.08911133 607.78637695 C-352.02522325 609.13285479 -353.96141481 610.47921811 -355.89770508 611.82543945 C-356.78458008 612.44225586 -357.67145508 613.05907227 -358.58520508 613.69458008 C-359.45056885 614.29608887 -360.31593262 614.89759766 -361.20751953 615.51733398 C-362.93105459 616.72013448 -364.65093586 617.92818701 -366.3671875 619.14135742 C-390.21966765 635.98675635 -416.5612326 649.15076672 -445.78442383 653.31567383 C-446.40462402 653.40558594 -447.02482422 653.49549805 -447.66381836 653.58813477 C-469.26130187 656.37913217 -490.77974965 654.69829198 -511.78442383 649.31567383 C-513.26459808 648.97325246 -514.74504352 648.63200004 -516.22583008 648.29223633 C-533.64480639 644.00671357 -551.56920689 635.22395823 -565.78442383 624.31567383 C-566.63391602 623.67243164 -567.4834082 623.02918945 -568.35864258 622.36645508 C-574.42387772 617.63872967 -580.15718355 612.55326623 -585.78442383 607.31567383 C-586.51274414 606.6530957 -587.24106445 605.99051758 -587.99145508 605.30786133 C-604.08246071 590.05764698 -615.83364148 569.86131841 -623.78442383 549.31567383 C-624.0523877 548.62957031 -624.32035156 547.9434668 -624.59643555 547.23657227 C-631.55275823 529.0418212 -634.14456215 510.78890571 -634.15942383 491.37817383 C-634.16241486 490.35540848 -634.16241486 490.35540848 -634.16546631 489.3119812 C-634.16085687 475.41681493 -632.92644502 461.78213394 -629.09692383 448.37817383 C-628.83564697 447.44851807 -628.57437012 446.5188623 -628.30517578 445.56103516 C-620.50138796 418.64593023 -606.43904903 395.99827256 -587.78442383 375.31567383 C-587.10895508 374.56672852 -586.43348633 373.8177832 -585.73754883 373.04614258 C-573.45383601 360.15874302 -557.79978583 350.79038341 -543.11808777 340.91812134 C-537.36395702 337.04363059 -531.66034572 333.09848025 -525.97192383 329.12817383 C-524.57889038 328.15618042 -524.57889038 328.15618042 -523.15771484 327.16455078 C-521.297784 325.86592484 -519.43816269 324.56685544 -517.57885742 323.26733398 C-512.8189963 319.94299974 -508.05124214 316.63002026 -503.28442383 313.31567383 C-501.37163355 311.98498758 -499.45887312 310.65425843 -497.54614258 309.32348633 C-493.67430375 306.62997602 -489.80184577 303.93735896 -485.92895508 301.24536133 C-476.8714597 294.94870679 -467.81852958 288.64585281 -458.78442383 282.31567383 C-448.77551166 275.30245003 -438.74305578 268.32330576 -428.70776367 261.34790039 C-423.89912221 258.00506328 -419.09183491 254.66028002 -414.28442383 251.31567383 C-412.3677638 249.98233095 -410.45109713 248.64899763 -408.53442383 247.31567383 C-407.58567383 246.65567383 -406.63692383 245.99567383 -405.65942383 245.31567383 C-397.03442383 239.31567383 -397.03442383 239.31567383 -394.15722656 237.31420898 C-392.24780443 235.985873 -390.33846149 234.65742317 -388.42919922 233.32885742 C-383.5273468 229.91810892 -378.62397593 226.5095768 -373.71801758 223.10473633 C-359.96112425 213.55452394 -346.27675486 203.96828798 -332.90942383 193.87817383 C-325.08447172 187.97760635 -317.13185554 182.33816309 -309.02075195 176.84106445 C-304.56560826 173.80222845 -300.14648306 170.71128564 -295.72192383 167.62817383 C-293.74146113 166.24925889 -291.76099232 164.87035272 -289.78051758 163.49145508 C-288.78777832 162.80003418 -287.79503906 162.10861328 -286.7722168 161.39624023 C-281.9442161 158.03423485 -277.11424396 154.67506464 -272.28442383 151.31567383 C-270.3677472 149.98235481 -268.45108055 148.64902146 -266.53442383 147.31567383 C-163.03442382 75.31567382 -163.03442382 75.31567382 -160.15869141 73.31518555 C-158.2444396 71.98351798 -156.33021428 70.65181232 -154.41601562 69.32006836 C-149.58761951 65.96093408 -144.75874676 62.6024888 -139.92895508 59.24536133 C-137.98490913 57.89384993 -136.04089855 56.54228767 -134.09692383 55.19067383 C-133.14333984 54.52769287 -132.18975586 53.86471191 -131.20727539 53.18164062 C-125.80566734 49.42406046 -120.41179029 45.6557742 -115.02587891 41.87573242 C-111.77044259 39.59230144 -108.51094596 37.31472236 -105.25024414 35.03881836 C-103.55538855 33.85443313 -101.86211408 32.6677831 -100.17016602 31.47924805 C-97.5882134 29.66749371 -94.99963048 27.86560109 -92.40942383 26.06567383 C-91.63050781 25.5162915 -90.8515918 24.96690918 -90.04907227 24.40087891 C-86.02208404 21.61741546 -82.52195077 19.70117699 -77.78442383 18.31567383 C-75.4348034 17.236045 -73.10832102 16.13463755 -70.78442383 15.00317383 C-48.1183326 4.25041371 -24.92309341 -0.07222534 0 0 Z " fill="#4F71BE" transform="translate(777.784423828125,198.684326171875)"/>
<path d="M0 0 C14.5175595 13.63427584 24.82569228 32.87370258 25.78515625 52.953125 C26.19565609 78.36286856 19.50119334 101.1582579 1.90771484 120.17578125 C-2.60749707 124.57600004 -8.00258622 127.82393106 -13.30224609 131.18505859 C-17.86649347 134.13960626 -22.29411655 137.29408453 -26.74609375 140.4140625 C-28.72615224 141.7935578 -30.70662556 143.17245786 -32.6875 144.55078125 C-33.68023926 145.24220215 -34.67297852 145.93362305 -35.69580078 146.64599609 C-40.52380148 150.00800148 -45.35377362 153.36717169 -50.18359375 156.7265625 C-52.10027037 158.05988152 -54.01693703 159.39321487 -55.93359375 160.7265625 C-90.43359375 184.7265625 -90.43359375 184.7265625 -93.30932617 186.72705078 C-95.22357798 188.05871835 -97.13780329 189.390424 -99.05200195 190.72216797 C-103.88039807 194.08130225 -108.70927082 197.43974753 -113.5390625 200.796875 C-122.59655788 207.09352954 -131.649488 213.39638352 -140.68359375 219.7265625 C-150.69250592 226.7397863 -160.7249618 233.71893056 -170.76025391 240.69433594 C-175.56889536 244.03717304 -180.3761994 247.38193228 -185.18359375 250.7265625 C-190.96807224 254.75097577 -196.75285172 258.77495264 -202.5390625 262.796875 C-203.50432861 263.46799316 -204.46959473 264.13911133 -205.46411133 264.83056641 C-207.38948855 266.16912966 -209.31510392 267.50735042 -211.2409668 268.84521484 C-215.91229254 272.09270348 -220.5754524 275.35087955 -225.22265625 278.6328125 C-226.11122314 279.25913574 -226.99979004 279.88545898 -227.9152832 280.53076172 C-229.56697914 281.69605813 -231.21674647 282.864096 -232.86401367 284.03564453 C-253.25148886 298.40854125 -275.90640149 307.3350536 -301.15234375 303.33544922 C-323.39043858 298.94149021 -342.62947317 287.34917572 -355.80078125 268.734375 C-368.54311901 249.06789899 -372.48268288 227.85087 -368.68359375 204.7265625 C-365.15090626 190.88777018 -358.88872115 178.66035232 -349.68359375 167.7265625 C-349.23757813 167.13617187 -348.7915625 166.54578125 -348.33203125 165.9375 C-339.16104121 154.19219696 -323.84999862 146.21781988 -311.73583984 137.83935547 C-306.87889191 134.4773312 -302.03156988 131.10150452 -297.18359375 127.7265625 C-295.26697689 126.39315757 -293.35031013 125.05982437 -291.43359375 123.7265625 C-290.48484375 123.0665625 -289.53609375 122.4065625 -288.55859375 121.7265625 C-239.68359375 87.7265625 -190.80859375 53.7265625 -141.93359375 19.7265625 C-140.98363525 19.06567627 -140.03367676 18.40479004 -139.05493164 17.72387695 C-137.15064471 16.39924713 -135.24618685 15.07486299 -133.34155273 13.75073242 C-128.35899976 10.28629772 -123.38005893 6.8168228 -118.40625 3.33984375 C-117.375 2.61990234 -116.34375 1.89996094 -115.28125 1.15820312 C-113.3179003 -0.2126041 -111.35558921 -1.58490061 -109.39453125 -2.95898438 C-74.59707122 -27.23686594 -33.19871343 -28.12467426 0 0 Z " fill="#FEFEFE" transform="translate(595.68359375,467.2734375)"/>
<path d="M0 0 C11.87303883 9.93803409 21.03889828 22.46134113 25.875 37.25 C26.17277344 38.05566406 26.47054687 38.86132812 26.77734375 39.69140625 C33.07274843 59.62201923 29.03342457 82.2212672 19.94726562 100.58325195 C16.57869887 106.97750185 12.59793139 112.78189499 7.875 118.25 C7.29492188 118.97316406 6.71484375 119.69632813 6.1171875 120.44140625 C-6.30676177 135.38653351 -23.51139536 144.45414779 -42.125 149.25 C-43.32253906 149.60578125 -44.52007813 149.9615625 -45.75390625 150.328125 C-66.94876217 155.55019171 -89.79927233 150.23795453 -108.125 139.25 C-111.38563445 137.1444782 -114.26223949 134.86723178 -117.125 132.25 C-118.01703125 131.44949219 -118.9090625 130.64898437 -119.828125 129.82421875 C-135.4922698 115.03743726 -143.62143186 95.59889728 -144.45727539 74.22412109 C-144.92490007 50.56498462 -134.97774696 28.95317759 -119.1875 11.6875 C-86.60317215 -19.22139255 -37.44478663 -28.63085993 0 0 Z " fill="#FEFEFE" transform="translate(830.125,297.75)"/>
</svg>
