<svg width="66" height="58" viewBox="0 0 66 58" fill="none" xmlns="http://www.w3.org/2000/svg">
<path d="M24.2084 4.42373L1.20044 44.6305C-1.62681 49.6441 0.810475 55.6407 5.68504 57.4102C5.29508 55.4441 5.58755 53.2814 6.75745 51.2169L30.4478 9.92881C32.4952 6.29152 36.4923 4.81695 40.0995 5.50509L39.5145 4.42373C36.1023 -1.47458 27.6206 -1.47458 24.2084 4.42373Z" fill="#F3F9FA"/>
<path d="M32.3976 14.0576L13.5818 46.9898C10.9496 51.6102 13.9718 57.4102 19.0413 58C19.0413 56.722 19.3338 55.3458 20.0162 54.0678L38.7346 21.3322C40.5869 18.1864 44.1941 17.1051 47.2163 17.9898L44.974 14.0576C42.2443 9.14236 35.2249 9.14236 32.3976 14.0576Z" fill="#F3F9FA"/>
<path d="M41.0743 24.0847L26.4506 49.5457C24.3058 53.2813 27.0356 58 31.3252 58H52.0909H54.8206H57.5504H60.3776C64.6672 58 67.397 53.2813 65.2522 49.5457L63.8873 46.9898L62.5224 44.6305L56.673 34.4068L50.8235 24.183C48.5812 20.3491 43.2192 20.3491 41.0743 24.0847ZM61.1576 42.2712L60.6701 41.4847L61.1576 42.2712Z" fill="#F3F9FA"/>
</svg>
