<svg width="414" height="382" viewBox="0 0 414 382" fill="none" xmlns="http://www.w3.org/2000/svg">
    <defs>
        <linearGradient id="paint0_linear" x1="101" y1="144.444" x2="115.705" y2="218.07"
            gradientUnits="userSpaceOnUse">
            <stop offset="0.347556" stop-color="#012043" />
            <stop offset="1" stop-color="#163D69" />
        </linearGradient>
        <linearGradient id="paint1_linear" x1="396.738" y1="122.593" x2="353.979" y2="169.154"
            gradientUnits="userSpaceOnUse">
            <stop offset="0.347556" stop-color="#012043" />
            <stop offset="1" stop-color="#163D69" />
        </linearGradient>
        <linearGradient id="paint2_linear" x1="367.938" y1="217.587" x2="251.096" y2="317.121"
            gradientUnits="userSpaceOnUse">
            <stop offset="0.347556" stop-color="#012043" />
            <stop offset="1" stop-color="#163D69" />
        </linearGradient>
        <linearGradient id="paint3_linear" x1="402.09" y1="362.72" x2="398.792" y2="384.716"
            gradientUnits="userSpaceOnUse">
            <stop offset="0.347556" stop-color="#012043" />
            <stop offset="1" stop-color="#163D69" />
        </linearGradient>
        <linearGradient id="paint4_linear" x1="331.346" y1="362.72" x2="328.048" y2="384.716"
            gradientUnits="userSpaceOnUse">
            <stop offset="0.347556" stop-color="#012043" />
            <stop offset="1" stop-color="#163D69" />
        </linearGradient>
    </defs>
    <g opacity="0.3">
        <path fill-rule="evenodd" clip-rule="evenodd"
            d="M430.673 94.0898C430.311 93.826 429.45 93.7324 429.05 93.6534C427.385 93.3252 425.671 93.1824 423.975 93.1824C418.743 93.1902 413.427 93.7038 408.282 94.5928C405.016 95.1572 401.067 97.0564 397.818 96.025C392.158 94.2278 386.437 94.3161 381.066 96.8817C376.156 99.2278 372.429 103.683 370.253 108.498C369.925 109.225 368.594 111.899 368.217 113.703C368.056 114.071 367.901 114.443 367.761 114.819C367.365 115.889 367.01 116.977 366.68 118.068C366.539 118.533 366.184 119.561 366.606 119.759C365.933 121.002 365.336 122.282 364.839 123.604C363.394 127.448 361.814 131.664 361.306 135.739C361.118 137.247 361.111 138.765 361.286 140.276C361.372 141.023 361.337 142.526 361.843 143.094C362.918 144.299 363.469 142.612 363.348 141.808C362.423 135.682 364.21 129.93 366.327 124.171C367.696 120.448 369.945 117.041 372.465 113.956C374.505 111.459 376.693 109.493 379.488 107.837C382.907 105.812 386.562 104.176 390.183 102.534C392.565 101.454 394.95 100.402 397.398 99.4716C397.942 99.2644 398.799 98.7335 399.403 98.7314C400.679 98.7268 402.488 99.669 403.721 100.02C407.777 101.173 411.884 102.649 416.076 103.238C418.764 103.617 421.283 103.191 423.797 102.295C424.054 102.204 424.485 101.969 425.012 101.633C426.879 100.914 428.645 100.01 430.183 98.7063C431.068 97.9549 431.872 96.9838 432.605 96.095C432.825 95.8293 432.922 95.5247 432.925 95.2353C433.091 95.1484 433.201 95.047 433.226 94.9286C433.409 94.0539 431.741 94.0377 430.673 94.0898Z"
            fill="#89C5CC" />
        <path fill-rule="evenodd" clip-rule="evenodd"
            d="M5.70592 167.008C4.67959 167.839 3.67299 168.688 2.69092 169.572C1.9425 170.245 0.617954 171.051 0.349269 172.071C0.0699648 173.131 0.951737 174.124 1.64833 174.765C5.3319 178.154 9.47971 180.446 14.5839 180.827C22.4432 181.414 29.2831 179.407 36.1021 175.457C40.8921 172.682 44.0649 168.578 44.7579 163.035C50.4623 165.407 55.9795 168.675 60.6679 172.687C62.9813 174.667 64.9737 176.86 66.8167 179.29C67.997 180.848 69.1388 182.43 70.1983 184.073C70.6589 184.787 71.1271 186.053 71.8875 186.464C72.7802 186.947 73.859 186.19 73.8148 185.197C73.778 184.371 72.8859 183.413 72.469 182.737C71.7762 181.616 71.0732 180.501 70.3327 179.41C69.1346 177.644 67.8964 175.903 66.5462 174.25C63.5108 170.538 59.6489 167.47 55.6457 164.854C47.9658 159.836 39.5373 156.675 30.1926 156.407C24.4466 156.242 19.6129 158.206 14.6992 161.138C11.64 162.964 8.48195 164.759 5.70592 167.008Z"
            fill="#DDE3E9" />
        <path fill-rule="evenodd" clip-rule="evenodd"
            d="M80.2405 142.736C74.2527 136.568 68.2441 130.477 61.5542 125.046C57.6117 121.845 53.4565 118.935 49.3871 115.9C49.8569 116.312 50.3173 116.735 50.7667 117.169C49.4965 116.306 47.8337 115.819 46.4869 115.02C44.9849 114.13 43.5491 113.111 42.1406 112.085C39.3915 110.081 36.6836 108.039 33.8578 106.14C30.7092 104.024 27.4463 102.069 24.2442 100.033C21.5267 98.3053 18.7758 96.4139 15.8686 95.0014C14.284 94.2315 12.6958 93.3188 11.1047 92.5158C10.5723 92.2471 5.16917 88.8345 5.18279 88.8243C5.48146 88.5991 8.2004 89.877 8.62084 90.0489C9.84913 90.5507 11.0238 91.1509 12.2047 91.7493C11.5565 90.4705 11.0434 89.1269 10.7641 87.7127C10.6778 87.2761 9.98658 84.0983 10.3403 83.8317C10.517 83.6985 12.2408 89.3842 12.329 89.9308C12.4008 90.3748 12.3902 91.0143 12.5356 91.4347C12.7702 92.1137 12.7583 91.9087 13.2752 92.2912C14.2224 92.9924 15.4798 93.4305 16.5051 94.0166C17.0579 94.3253 18.7696 95.5494 19.8006 95.8984C22.9201 97.4139 26.082 99.7455 29.046 101.681C28.2681 100.219 27.6761 98.6898 27.2444 97.0874C27.1417 96.707 26.0339 93.2943 26.3027 93.0917C26.6051 92.8637 28.716 98.0759 28.841 98.5693C29.0733 99.4858 29.1215 100.506 29.4123 101.398C29.7315 102.377 30.7275 102.724 31.6253 103.294C34.9283 105.393 38.1178 107.624 41.2543 109.956C44.6765 103.869 40.7305 96.517 37.4049 91.409C35.0078 87.7277 31.7806 84.5715 28.3732 81.8161C23.8258 78.1387 18.6229 75.2009 13.4264 72.5137C7.37145 69.3826 0.827107 67.4426 -5.97655 66.5463C-9.53498 66.0775 -13.1755 66.0906 -16.7698 66.2409C-18.5257 66.3142 -20.2111 66.5469 -21.8938 67.1196C-22.6521 67.3781 -23.3851 67.7039 -24.0994 68.0686C-24.6421 68.3457 -25.9549 68.6383 -26.2669 69.0512C-28.8355 72.3951 -30.1496 75.7273 -29.9489 79.9293C-29.7591 83.907 -28.5032 87.8868 -26.7987 91.4349C-24.9005 95.3858 -22.4591 98.9716 -19.2662 101.981C-16.8302 104.277 -14.1067 106.276 -11.4012 108.248C-1.77842 115.263 10.4216 121.363 22.8847 119.796C26.919 119.289 30.7562 117.878 34.3421 115.96C35.187 115.508 36.0268 115.051 36.8244 114.517C37.3622 114.158 38.7998 112.537 39.3406 112.478C40.082 112.398 41.6792 113.906 42.3748 114.365C47.6609 117.855 52.8086 121.535 57.8483 125.363C63.2102 129.436 68.3092 133.786 73.258 138.341C75.3628 140.278 77.4543 142.219 79.4981 144.222C79.9738 144.688 81.1373 146.403 82.0001 146.481C82.5457 146.53 82.9136 146.064 82.8357 145.559C82.7003 144.681 80.8536 143.368 80.2405 142.736Z"
            fill="#C1DEE2" />
        <path fill-rule="evenodd" clip-rule="evenodd"
            d="M424.387 118.797C422.067 118.29 419.506 118.329 417.144 118.371C404.473 118.543 392.03 124.544 383.932 134.131C377.039 142.294 375.143 152.441 373.781 162.7C373.646 163.718 373.588 164.73 373.512 165.751C373.496 165.97 373.471 166.165 373.445 166.349C372.909 166.828 372.628 167.387 372.946 168C371.766 170.583 370.767 173.231 369.911 175.962C367.39 184.002 364.826 192.194 366.406 200.648C366.775 195.996 367.551 191.239 368.479 186.663C368.533 186.4 368.59 186.139 368.65 185.88C368.657 185.852 368.662 185.825 368.668 185.798C368.997 184.396 369.424 183.037 369.944 181.699C369.949 181.685 369.954 181.67 369.96 181.656C370.029 181.48 370.102 181.305 370.174 181.129C370.322 180.767 370.475 180.405 370.637 180.045C370.692 179.922 370.745 179.798 370.795 179.674C371.552 177.82 371.871 175.731 372.548 173.812C372.711 173.376 372.88 172.941 373.058 172.509C373.068 172.484 373.079 172.459 373.089 172.433C373.569 171.27 374.099 170.121 374.66 168.984C374.965 168.755 375.127 168.187 375.39 167.67C375.444 167.569 375.869 166.89 375.996 166.499C376.326 165.86 376.655 165.222 376.987 164.584C376.977 164.588 376.967 164.591 376.957 164.595C377.29 163.983 377.624 163.373 377.955 162.766C378.027 162.633 378.101 162.499 378.174 162.365C378.293 162.152 378.412 161.939 378.531 161.727C379.641 159.74 380.817 157.794 382.04 155.871C382.476 155.185 383.518 154.201 383.718 153.43C383.725 153.401 383.727 153.375 383.731 153.347C386.383 149.622 389.436 146.186 393.097 143.463C392.655 143.941 391.714 145.565 391.465 145.887C390.704 146.871 389.878 147.787 389.048 148.715C387.563 150.376 386.113 152.09 384.824 153.903C382.468 157.218 380.435 160.707 378.513 164.266C378.495 164.287 378.475 164.307 378.458 164.328C377.492 165.519 376.884 167.319 376.189 168.681C378.94 167.406 381.983 166.576 384.807 165.444C387.623 164.316 390.362 163.059 393.007 161.583C396.522 159.622 400.169 157.408 403.49 154.902C407.296 152.541 410.495 149.29 413.318 145.879C416.658 141.843 419.72 137.772 421.613 132.872C422.543 130.464 423.274 127.953 423.708 125.413C423.727 125.302 423.751 125.182 423.778 125.057C424.222 124.18 424.618 123.283 424.951 122.365C425.48 120.91 426.729 119.309 424.387 118.797Z"
            fill="#69A1AC" />
        <path fill-rule="evenodd" clip-rule="evenodd"
            d="M31.3658 135.848C30.6392 135.061 29.8231 134.351 28.8649 133.845C28.6227 133.717 26.8182 132.859 26.7007 133.047C26.4269 133.486 31.1475 135.597 31.3658 135.848ZM39.9211 130.591C39.9151 130.624 40.5408 131.686 40.7111 132.013C41.0737 132.707 41.4085 133.415 41.7234 134.124C41.2571 132.872 40.7781 131.71 39.9211 130.591ZM-3.83329 139.235C-4.43588 139.43 -5.16039 138.664 -4.37876 138.476C-3.74632 138.325 -3.77733 138.289 -3.49336 137.78C-3.26276 137.366 -3.12069 136.861 -2.91834 136.427C-2.48912 135.506 -2.00224 134.628 -1.4046 133.805C-0.123775 132.04 1.4368 130.52 3.1871 129.239C6.2417 127.003 9.66665 124.96 13.2998 123.933C19.0765 122.301 25.6512 122.2 31.4369 123.332C35.0202 124.033 38.2949 125.251 40.6743 128.137C41.8635 129.579 42.797 131.269 43.205 133.129C43.3115 133.615 43.2916 134.156 43.4249 134.632C43.6298 135.364 43.5394 135.17 44.3954 135.312C45.3301 135.467 46.2639 135.626 47.1975 135.788C49.642 136.21 52.1008 136.659 54.4826 137.346C55.2666 137.572 56.0333 137.848 56.7822 138.168C57.3487 138.411 59.6043 139.172 59.8784 139.908C60.3347 141.132 58.806 140.577 58.331 140.31C57.9149 140.077 57.4877 139.859 57.0543 139.658C55.963 139.153 54.8259 138.762 53.6633 138.451C52.4068 138.115 51.1247 137.864 49.8475 137.613C48.6564 137.379 47.4608 137.166 46.2638 136.962C45.5988 136.849 44.9332 136.739 44.2676 136.629C44.0402 136.591 43.6392 136.394 43.6696 136.69C42.2703 136.42 40.757 136.459 39.3317 136.385C37.5859 136.294 35.8336 136.219 34.082 136.274C32.8186 136.313 31.5542 136.396 30.2973 136.566C29.5628 136.665 28.8401 136.81 28.1195 136.994C27.7237 137.095 26.1628 137.309 25.9472 137.654C26.0398 137.506 27.7625 137.65 27.9817 137.641C28.8587 137.608 29.7289 137.522 30.6026 137.424C32.2241 137.243 33.8463 137.148 35.4727 137.162C35.4665 137.447 34.3555 137.956 34.0843 138.145C33.4762 138.57 32.8938 139.033 32.3504 139.541C31.3932 140.435 30.2471 141.544 29.5849 142.603C29.7801 142.291 30.7427 141.885 31.0843 141.646C31.6315 141.263 32.1676 140.856 32.6749 140.419C33.1432 140.017 33.5802 139.582 34.0099 139.138C34.4396 138.693 35.0228 137.769 35.5874 137.473C35.6215 137.455 35.8676 137.65 36.0074 137.583C36.1483 137.517 36.324 137.184 36.3597 137.17C36.8853 136.967 37.8836 137.22 38.4361 137.245C39.8691 137.311 41.3006 137.398 42.7326 137.476C43.1763 137.501 43.5532 137.4 43.7208 137.727C43.8993 138.076 43.5722 138.994 43.4791 139.374C43.1338 140.786 42.5206 142.052 41.5553 143.146C39.7476 145.195 37.5185 146.562 35.0002 147.475C25.3548 150.976 15.0933 152.377 5.45079 148.736C1.45882 147.229 -4.55313 144.535 -3.83329 139.235Z"
            fill="#89C5CC" />
        <g opacity="0.6">
            <path opacity="0.6" fill-rule="evenodd" clip-rule="evenodd"
                d="M437.804 304.136C444.365 348.567 285.229 377.548 148.257 357.323C11.2852 337.098 -51.5511 258.117 13.8097 216.033C79.1705 173.949 431.242 259.706 437.804 304.136Z"
                fill="#DDE3E9" />
        </g>
        <path
            d="M157.84 12.9232H60.6C57.5955 12.9232 55.16 15.3594 55.16 18.3645V212.891C55.16 215.896 57.5955 218.332 60.6 218.332H157.84C160.844 218.332 163.28 215.896 163.28 212.891V18.3645C163.28 15.3594 160.844 12.9232 157.84 12.9232Z"
            fill="#F2F2F2" />
        <path
            d="M108.88 205.409C114.513 205.409 119.08 200.841 119.08 195.207C119.08 189.572 114.513 185.004 108.88 185.004C103.247 185.004 98.68 189.572 98.68 195.207C98.68 200.841 103.247 205.409 108.88 205.409Z"
            fill="white" />
        <path
            d="M100.04 26.5264C100.791 26.5264 101.4 25.9174 101.4 25.1661C101.4 24.4148 100.791 23.8058 100.04 23.8058C99.2889 23.8058 98.68 24.4148 98.68 25.1661C98.68 25.9174 99.2889 26.5264 100.04 26.5264Z"
            fill="white" />
        <path
            d="M117.72 23.8058H106.16C105.409 23.8058 104.8 24.4148 104.8 25.1661C104.8 25.9174 105.409 26.5264 106.16 26.5264H117.72C118.471 26.5264 119.08 25.9174 119.08 25.1661C119.08 24.4148 118.471 23.8058 117.72 23.8058Z"
            fill="white" />
        <path
            d="M151.04 31.9678H67.4C65.8978 31.9678 64.68 33.1858 64.68 34.6884V65.9759C64.68 67.4785 65.8978 68.6966 67.4 68.6966H151.04C152.542 68.6966 153.76 67.4785 153.76 65.9759V34.6884C153.76 33.1858 152.542 31.9678 151.04 31.9678Z"
            fill="white" />
        <path
            d="M138.8 42.9865H93.24C92.1134 42.9865 91.2 43.9 91.2 45.0269V46.4553C91.2 47.5822 92.1134 48.4958 93.24 48.4958H138.8C139.927 48.4958 140.84 47.5822 140.84 46.4553V45.0269C140.84 43.9 139.927 42.9865 138.8 42.9865Z"
            fill="#DDE3E9" />
        <path
            d="M122.48 52.1686H93.24C92.1134 52.1686 91.2 53.0821 91.2 54.2091V55.6374C91.2 56.7643 92.1134 57.6779 93.24 57.6779H122.48C123.607 57.6779 124.52 56.7643 124.52 55.6374V54.2091C124.52 53.0821 123.607 52.1686 122.48 52.1686Z"
            fill="#DDE3E9" />
        <path
            d="M78.96 58.4942C83.4667 58.4942 87.12 54.84 87.12 50.3322C87.12 45.8245 83.4667 42.1703 78.96 42.1703C74.4534 42.1703 70.8 45.8245 70.8 50.3322C70.8 54.84 74.4534 58.4942 78.96 58.4942Z"
            fill="#C5CFD6" />
        <path
            d="M151.04 74.1378H67.4C65.8978 74.1378 64.68 75.3559 64.68 76.8585V99.984C64.68 101.487 65.8978 102.705 67.4 102.705H151.04C152.542 102.705 153.76 101.487 153.76 99.984V76.8585C153.76 75.3559 152.542 74.1378 151.04 74.1378Z"
            fill="white" />
        <path
            d="M138.8 82.708H93.24C92.1134 82.708 91.2 83.6216 91.2 84.7485V84.9525C91.2 86.0795 92.1134 86.993 93.24 86.993H138.8C139.927 86.993 140.84 86.0795 140.84 84.9525V84.7485C140.84 83.6216 139.927 82.708 138.8 82.708Z"
            fill="#DDE3E9" />
        <path
            d="M122.48 89.8496H93.24C92.1134 89.8496 91.2 90.7632 91.2 91.8901V92.0941C91.2 93.2211 92.1134 94.1346 93.24 94.1346H122.48C123.607 94.1346 124.52 93.2211 124.52 92.0941V91.8901C124.52 90.7632 123.607 89.8496 122.48 89.8496Z"
            fill="#DDE3E9" />
        <path
            d="M78.96 96.5832C83.4667 96.5832 87.12 92.929 87.12 88.4212C87.12 83.9135 83.4667 80.2593 78.96 80.2593C74.4534 80.2593 70.8 83.9135 70.8 88.4212C70.8 92.929 74.4534 96.5832 78.96 96.5832Z"
            fill="#C5CFD6" />
        <path
            d="M151.04 108.146H67.4C65.8978 108.146 64.68 109.364 64.68 110.867V133.992C64.68 135.495 65.8978 136.713 67.4 136.713H151.04C152.542 136.713 153.76 135.495 153.76 133.992V110.867C153.76 109.364 152.542 108.146 151.04 108.146Z"
            fill="white" />
        <path
            d="M138.8 116.716H93.24C92.1134 116.716 91.2 117.63 91.2 118.757V118.961C91.2 120.088 92.1134 121.001 93.24 121.001H138.8C139.927 121.001 140.84 120.088 140.84 118.961V118.757C140.84 117.63 139.927 116.716 138.8 116.716Z"
            fill="#DDE3E9" />
        <path
            d="M122.48 123.858H93.24C92.1134 123.858 91.2 124.771 91.2 125.898V126.102C91.2 127.229 92.1134 128.143 93.24 128.143H122.48C123.607 128.143 124.52 127.229 124.52 126.102V125.898C124.52 124.771 123.607 123.858 122.48 123.858Z"
            fill="#DDE3E9" />
        <path
            d="M78.96 130.591C83.4667 130.591 87.12 126.937 87.12 122.429C87.12 117.922 83.4667 114.267 78.96 114.267C74.4534 114.267 70.8 117.922 70.8 122.429C70.8 126.937 74.4534 130.591 78.96 130.591Z"
            fill="#AFB9C5" />
        <path
            d="M151.04 142.154H67.4C65.8978 142.154 64.68 143.372 64.68 144.875V168C64.68 169.503 65.8978 170.721 67.4 170.721H151.04C152.542 170.721 153.76 169.503 153.76 168V144.875C153.76 143.372 152.542 142.154 151.04 142.154Z"
            fill="white" />
        <path
            d="M138.8 150.724H93.24C92.1134 150.724 91.2 151.638 91.2 152.765V152.969C91.2 154.096 92.1134 155.009 93.24 155.009H138.8C139.927 155.009 140.84 154.096 140.84 152.969V152.765C140.84 151.638 139.927 150.724 138.8 150.724Z"
            fill="#DDE3E9" />
        <path
            d="M122.48 157.866H93.24C92.1134 157.866 91.2 158.779 91.2 159.906V160.11C91.2 161.237 92.1134 162.151 93.24 162.151H122.48C123.607 162.151 124.52 161.237 124.52 160.11V159.906C124.52 158.779 123.607 157.866 122.48 157.866Z"
            fill="#DDE3E9" />
        <path
            d="M78.96 164.599C83.4667 164.599 87.12 160.945 87.12 156.437C87.12 151.93 83.4667 148.276 78.96 148.276C74.4534 148.276 70.8 151.93 70.8 156.437C70.8 160.945 74.4534 164.599 78.96 164.599Z"
            fill="#C5CFD6" />
        <path fill-rule="evenodd" clip-rule="evenodd"
            d="M75.6552 178.883C74.7543 178.883 73.8561 178.901 72.9564 178.948C72.2706 178.984 71.2225 178.841 70.6422 179.269C70.0392 179.713 70.0807 180.622 70.1749 181.264C70.6728 184.659 71.8881 187.67 74.4305 190.075C78.345 193.779 82.8327 195.661 88.1429 196.499C91.8731 197.088 95.3167 196.27 98.0627 193.617C100.069 197.342 101.591 201.463 102.355 205.623C102.732 207.676 102.847 209.704 102.78 211.794C102.738 213.133 102.664 214.469 102.52 215.801C102.458 216.38 102.163 217.257 102.39 217.804C102.656 218.446 103.552 218.508 103.955 217.96C104.29 217.504 104.229 216.609 104.297 216.069C104.411 215.173 104.517 214.276 104.593 213.375C104.716 211.918 104.806 210.456 104.8 208.993C104.784 205.705 104.054 202.405 103.054 199.284C101.136 193.297 98.025 187.976 93.186 183.801C90.2106 181.234 86.8054 180.195 82.9419 179.637C80.5365 179.289 78.0919 178.883 75.6552 178.883Z"
            fill="#89C5CC" />
        <path fill-rule="evenodd" clip-rule="evenodd"
            d="M89.5485 202.689C79.8252 202.689 73.2766 210.527 70.1803 218.674C69.0131 221.744 68.7396 225.116 68.2898 228.341C68.1453 229.375 68.1988 230.952 67.7789 231.874C67.6265 232.208 67.2772 232.328 67.4442 232.784C67.5453 233.06 67.7437 233.228 68.0417 233.283C68.6533 233.396 69.5181 232.73 70.0424 232.467C74.3917 230.285 77.2493 226.911 79.5805 222.784C81.0255 220.226 82.4918 217.57 83.3502 214.761C83.8745 213.046 84.1798 211.239 84.3591 209.459C84.4296 208.758 84.4979 208.04 84.4938 207.335C84.4896 206.636 84.1642 206.266 83.9303 205.657C87.1746 204.428 90.8367 204.093 94.1231 205.366C97.1627 206.544 99.6877 208.819 101.101 211.677C101.469 212.42 101.752 213.204 101.958 214.004C102.094 214.527 102.1 215.207 102.35 215.68C102.957 216.828 104.234 216.06 104.112 214.992C103.77 212.012 102.065 209.02 99.887 206.948C97.1394 204.335 93.4151 202.689 89.5485 202.689Z"
            fill="#89C5CC" />
        <path
            d="M202.72 30.6074H105.48C102.476 30.6074 100.04 33.0436 100.04 36.0487V230.575C100.04 233.58 102.476 236.017 105.48 236.017H202.72C205.724 236.017 208.16 233.58 208.16 230.575V36.0487C208.16 33.0436 205.724 30.6074 202.72 30.6074Z"
            fill="#DDE3E9" />
        <path
            d="M153.76 223.093C159.393 223.093 163.96 218.526 163.96 212.891C163.96 207.256 159.393 202.689 153.76 202.689C148.127 202.689 143.56 207.256 143.56 212.891C143.56 218.526 148.127 223.093 153.76 223.093Z"
            fill="white" />
        <path
            d="M144.92 44.2106C145.671 44.2106 146.28 43.6016 146.28 42.8503C146.28 42.099 145.671 41.49 144.92 41.49C144.169 41.49 143.56 42.099 143.56 42.8503C143.56 43.6016 144.169 44.2106 144.92 44.2106Z"
            fill="white" />
        <path
            d="M162.6 41.49H151.04C150.289 41.49 149.68 42.099 149.68 42.8503C149.68 43.6016 150.289 44.2106 151.04 44.2106H162.6C163.351 44.2106 163.96 43.6016 163.96 42.8503C163.96 42.099 163.351 41.49 162.6 41.49Z"
            fill="white" />
        <path
            d="M195.92 49.652H112.28C110.778 49.652 109.56 50.8701 109.56 52.3726V83.6601C109.56 85.1627 110.778 86.3808 112.28 86.3808H195.92C197.422 86.3808 198.64 85.1627 198.64 83.6601V52.3726C198.64 50.8701 197.422 49.652 195.92 49.652Z"
            fill="white" />
        <path
            d="M163.28 60.6705H117.72C116.593 60.6705 115.68 61.5841 115.68 62.711V64.1394C115.68 65.2663 116.593 66.1799 117.72 66.1799H163.28C164.407 66.1799 165.32 65.2663 165.32 64.1394V62.711C165.32 61.5841 164.407 60.6705 163.28 60.6705Z"
            fill="#DDE3E9" />
        <path
            d="M146.96 69.8528H117.72C116.593 69.8528 115.68 70.7663 115.68 71.8933V73.3216C115.68 74.4485 116.593 75.3621 117.72 75.3621H146.96C148.087 75.3621 149 74.4485 149 73.3216V71.8933C149 70.7663 148.087 69.8528 146.96 69.8528Z"
            fill="#DDE3E9" />
        <path
            d="M189.12 72.7775C191.749 72.7775 193.88 70.6459 193.88 68.0164C193.88 65.3869 191.749 63.2552 189.12 63.2552C186.491 63.2552 184.36 65.3869 184.36 68.0164C184.36 70.6459 186.491 72.7775 189.12 72.7775Z"
            fill="#DDE3E9" />
        <path
            d="M189.12 70.0569C190.247 70.0569 191.16 69.1434 191.16 68.0164C191.16 66.8895 190.247 65.976 189.12 65.976C187.993 65.976 187.08 66.8895 187.08 68.0164C187.08 69.1434 187.993 70.0569 189.12 70.0569Z"
            fill="#F2F2F2" />
        <path
            d="M195.92 91.822H112.28C110.778 91.822 109.56 93.0401 109.56 94.5427V117.668C109.56 119.171 110.778 120.389 112.28 120.389H195.92C197.422 120.389 198.64 119.171 198.64 117.668V94.5427C198.64 93.0401 197.422 91.822 195.92 91.822Z"
            fill="white" />
        <path
            d="M183.68 100.392H138.12C136.993 100.392 136.08 101.306 136.08 102.433V102.637C136.08 103.764 136.993 104.677 138.12 104.677H183.68C184.807 104.677 185.72 103.764 185.72 102.637V102.433C185.72 101.306 184.807 100.392 183.68 100.392Z"
            fill="#DDE3E9" />
        <path
            d="M167.36 107.534H138.12C136.993 107.534 136.08 108.447 136.08 109.574V109.778C136.08 110.905 136.993 111.819 138.12 111.819H167.36C168.487 111.819 169.4 110.905 169.4 109.778V109.574C169.4 108.447 168.487 107.534 167.36 107.534Z"
            fill="#DDE3E9" />
        <path
            d="M123.84 114.267C128.347 114.267 132 110.613 132 106.105C132 101.598 128.347 97.9435 123.84 97.9435C119.333 97.9435 115.68 101.598 115.68 106.105C115.68 110.613 119.333 114.267 123.84 114.267Z"
            fill="#C5CFD6" />
        <path
            d="M195.92 125.83H112.28C110.778 125.83 109.56 127.048 109.56 128.551V151.676C109.56 153.179 110.778 154.397 112.28 154.397H195.92C197.422 154.397 198.64 153.179 198.64 151.676V128.551C198.64 127.048 197.422 125.83 195.92 125.83Z"
            fill="white" />
        <path
            d="M163.28 134.4H117.72C116.593 134.4 115.68 135.314 115.68 136.441V136.645C115.68 137.772 116.593 138.685 117.72 138.685H163.28C164.407 138.685 165.32 137.772 165.32 136.645V136.441C165.32 135.314 164.407 134.4 163.28 134.4Z"
            fill="#DDE3E9" />
        <path
            d="M146.96 141.542H117.72C116.593 141.542 115.68 142.456 115.68 143.582V143.787C115.68 144.913 116.593 145.827 117.72 145.827H146.96C148.087 145.827 149 144.913 149 143.787V143.582C149 142.456 148.087 141.542 146.96 141.542Z"
            fill="#AFB9C5" />
        <path
            d="M189.12 144.875C191.749 144.875 193.88 142.743 193.88 140.114C193.88 137.484 191.749 135.352 189.12 135.352C186.491 135.352 184.36 137.484 184.36 140.114C184.36 142.743 186.491 144.875 189.12 144.875Z"
            fill="#DDE3E9" />
        <path
            d="M189.12 142.154C190.247 142.154 191.16 141.241 191.16 140.114C191.16 138.987 190.247 138.073 189.12 138.073C187.993 138.073 187.08 138.987 187.08 140.114C187.08 141.241 187.993 142.154 189.12 142.154Z"
            fill="#F2F2F2" />
        <path
            d="M195.92 159.838H112.28C110.778 159.838 109.56 161.056 109.56 162.559V185.685C109.56 187.187 110.778 188.405 112.28 188.405H195.92C197.422 188.405 198.64 187.187 198.64 185.685V162.559C198.64 161.056 197.422 159.838 195.92 159.838Z"
            fill="white" />
        <path
            d="M183.68 168.408H138.12C136.993 168.408 136.08 169.322 136.08 170.449V170.653C136.08 171.78 136.993 172.693 138.12 172.693H183.68C184.807 172.693 185.72 171.78 185.72 170.653V170.449C185.72 169.322 184.807 168.408 183.68 168.408Z"
            fill="#DDE3E9" />
        <path
            d="M167.36 175.55H138.12C136.993 175.55 136.08 176.464 136.08 177.591V177.795C136.08 178.922 136.993 179.835 138.12 179.835H167.36C168.487 179.835 169.4 178.922 169.4 177.795V177.591C169.4 176.464 168.487 175.55 167.36 175.55Z"
            fill="#DDE3E9" />
        <path
            d="M123.84 182.284C128.347 182.284 132 178.629 132 174.122C132 169.614 128.347 165.96 123.84 165.96C119.333 165.96 115.68 169.614 115.68 174.122C115.68 178.629 119.333 182.284 123.84 182.284Z"
            fill="#C5CFD6" />
        <path
            d="M367.28 47.6115H150.36C147.356 47.6115 144.92 50.0476 144.92 53.0528V277.506C144.92 280.512 147.356 282.948 150.36 282.948H367.28C370.284 282.948 372.72 280.512 372.72 277.506V53.0528C372.72 50.0476 370.284 47.6115 367.28 47.6115Z"
            fill="#F2F2F2" />
        <path
            d="M356.4 76.8584H319.68C316.676 76.8584 314.24 79.2946 314.24 82.2997V126.51C314.24 129.515 316.676 131.952 319.68 131.952H356.4C359.404 131.952 361.84 129.515 361.84 126.51V82.2997C361.84 79.2946 359.404 76.8584 356.4 76.8584Z"
            fill="white" />
        <path
            d="M338.04 108.826C344.049 108.826 348.92 103.954 348.92 97.9435C348.92 91.9332 344.049 87.0609 338.04 87.0609C332.031 87.0609 327.16 91.9332 327.16 97.9435C327.16 103.954 332.031 108.826 338.04 108.826Z"
            fill="#DDE3E9" />
        <path
            d="M353 111.547H323.08C321.953 111.547 321.04 112.46 321.04 113.587C321.04 114.714 321.953 115.628 323.08 115.628H353C354.127 115.628 355.04 114.714 355.04 113.587C355.04 112.46 354.127 111.547 353 111.547Z"
            fill="#DDE3E9" />
        <path
            d="M347.56 118.348H328.52C327.393 118.348 326.48 119.262 326.48 120.389C326.48 121.516 327.393 122.429 328.52 122.429H347.56C348.687 122.429 349.6 121.516 349.6 120.389C349.6 119.262 348.687 118.348 347.56 118.348Z"
            fill="#DDE3E9" />
        <path fill-rule="evenodd" clip-rule="evenodd"
            d="M150.36 47.6115H367.28C370.284 47.6115 372.72 50.0476 372.72 53.0528V65.9758H144.92V53.0528C144.92 50.0476 147.356 47.6115 150.36 47.6115Z"
            fill="#C5CFD6" />
        <path
            d="M153.76 59.8544C155.262 59.8544 156.48 58.6363 156.48 57.1337C156.48 55.6312 155.262 54.4131 153.76 54.4131C152.258 54.4131 151.04 55.6312 151.04 57.1337C151.04 58.6363 152.258 59.8544 153.76 59.8544Z"
            fill="#F2F2F2" />
        <path
            d="M161.92 59.8544C163.422 59.8544 164.64 58.6363 164.64 57.1337C164.64 55.6312 163.422 54.4131 161.92 54.4131C160.418 54.4131 159.2 55.6312 159.2 57.1337C159.2 58.6363 160.418 59.8544 161.92 59.8544Z"
            fill="#F2F2F2" />
        <path
            d="M170.08 59.8544C171.582 59.8544 172.8 58.6363 172.8 57.1337C172.8 55.6312 171.582 54.4131 170.08 54.4131C168.578 54.4131 167.36 55.6312 167.36 57.1337C167.36 58.6363 168.578 59.8544 170.08 59.8544Z"
            fill="#F2F2F2" />
        <path
            d="M356.4 137.393H319.68C316.676 137.393 314.24 139.829 314.24 142.834V263.903C314.24 266.908 316.676 269.344 319.68 269.344H356.4C359.404 269.344 361.84 266.908 361.84 263.903V142.834C361.84 139.829 359.404 137.393 356.4 137.393Z"
            fill="white" />
        <path
            d="M346.88 149.636H329.2C327.698 149.636 326.48 150.854 326.48 152.357V164.599C326.48 166.102 327.698 167.32 329.2 167.32H346.88C348.382 167.32 349.6 166.102 349.6 164.599V152.357C349.6 150.854 348.382 149.636 346.88 149.636Z"
            fill="#DDE3E9" />
        <path
            d="M346.88 172.761H329.2C327.698 172.761 326.48 173.979 326.48 175.482V187.045C326.48 188.547 327.698 189.765 329.2 189.765H346.88C348.382 189.765 349.6 188.547 349.6 187.045V175.482C349.6 173.979 348.382 172.761 346.88 172.761Z"
            fill="#AFB9C5" />
        <path
            d="M346.88 195.207H329.2C327.698 195.207 326.48 196.425 326.48 197.927V209.49C326.48 210.993 327.698 212.211 329.2 212.211H346.88C348.382 212.211 349.6 210.993 349.6 209.49V197.927C349.6 196.425 348.382 195.207 346.88 195.207Z"
            fill="#DDE3E9" />
        <path
            d="M346.88 240.098H329.2C327.698 240.098 326.48 241.316 326.48 242.818V254.381C326.48 255.883 327.698 257.102 329.2 257.102H346.88C348.382 257.102 349.6 255.883 349.6 254.381V242.818C349.6 241.316 348.382 240.098 346.88 240.098Z"
            fill="#DDE3E9" />
        <path
            d="M346.88 217.652H329.2C327.698 217.652 326.48 218.87 326.48 220.373V231.935C326.48 233.438 327.698 234.656 329.2 234.656H346.88C348.382 234.656 349.6 233.438 349.6 231.935V220.373C349.6 218.87 348.382 217.652 346.88 217.652Z"
            fill="#C5CFD6" />
        <path
            d="M306.08 77.5387H158.52C157.018 77.5387 155.8 78.7568 155.8 80.2593V106.786C155.8 108.288 157.018 109.506 158.52 109.506H306.08C307.582 109.506 308.8 108.288 308.8 106.786V80.2593C308.8 78.7568 307.582 77.5387 306.08 77.5387Z"
            fill="white" />
        <path
            d="M273.44 87.1289H163.96C162.833 87.1289 161.92 88.0425 161.92 89.1694V89.8836C161.92 91.0105 162.833 91.9241 163.96 91.9241H273.44C274.567 91.9241 275.48 91.0105 275.48 89.8836V89.1694C275.48 88.0425 274.567 87.1289 273.44 87.1289Z"
            fill="#DDE3E9" />
        <path
            d="M236.105 95.1208H163.96C162.833 95.1208 161.92 96.0344 161.92 97.1613V97.8755C161.92 99.0024 162.833 99.916 163.96 99.916H236.105C237.232 99.916 238.145 99.0024 238.145 97.8755V97.1613C238.145 96.0344 237.232 95.1208 236.105 95.1208Z"
            fill="#DDE3E9" />
        <path
            d="M292.449 98.2836C295.078 98.2836 297.209 96.152 297.209 93.5225C297.209 90.893 295.078 88.7614 292.449 88.7614C289.82 88.7614 287.689 90.893 287.689 93.5225C287.689 96.152 289.82 98.2836 292.449 98.2836Z"
            fill="#DDE3E9" />
        <path
            d="M292.449 95.563C293.576 95.563 294.489 94.6495 294.489 93.5225C294.489 92.3956 293.576 91.4821 292.449 91.4821C291.322 91.4821 290.409 92.3956 290.409 93.5225C290.409 94.6495 291.322 95.563 292.449 95.563Z"
            fill="#F2F2F2" />
        <path
            d="M306.08 114.948H158.52C157.018 114.948 155.8 116.166 155.8 117.668V138.753C155.8 140.256 157.018 141.474 158.52 141.474H306.08C307.582 141.474 308.8 140.256 308.8 138.753V117.668C308.8 116.166 307.582 114.948 306.08 114.948Z"
            fill="white" />
        <path
            d="M273.491 122.906H163.909C162.811 122.906 161.92 123.796 161.92 124.895C161.92 125.994 162.811 126.884 163.909 126.884H273.491C274.589 126.884 275.48 125.994 275.48 124.895C275.48 123.796 274.589 122.906 273.491 122.906Z"
            fill="#DDE3E9" />
        <path
            d="M236.156 129.537H163.909C162.811 129.537 161.92 130.428 161.92 131.526C161.92 132.625 162.811 133.516 163.909 133.516H236.156C237.255 133.516 238.145 132.625 238.145 131.526C238.145 130.428 237.255 129.537 236.156 129.537Z"
            fill="#DDE3E9" />
        <path
            d="M292.449 132.972C295.078 132.972 297.209 130.84 297.209 128.211C297.209 125.581 295.078 123.45 292.449 123.45C289.82 123.45 287.689 125.581 287.689 128.211C287.689 130.84 289.82 132.972 292.449 132.972Z"
            fill="#DDE3E9" />
        <path
            d="M292.449 130.251C293.576 130.251 294.489 129.338 294.489 128.211C294.489 127.084 293.576 126.17 292.449 126.17C291.322 126.17 290.409 127.084 290.409 128.211C290.409 129.338 291.322 130.251 292.449 130.251Z"
            fill="#F2F2F2" />
        <path
            d="M306.08 146.915H158.52C157.018 146.915 155.8 148.133 155.8 149.636V170.721C155.8 172.224 157.018 173.442 158.52 173.442H306.08C307.582 173.442 308.8 172.224 308.8 170.721V149.636C308.8 148.133 307.582 146.915 306.08 146.915Z"
            fill="white" />
        <path
            d="M273.491 154.873H163.909C162.811 154.873 161.92 155.764 161.92 156.863C161.92 157.961 162.811 158.852 163.909 158.852H273.491C274.589 158.852 275.48 157.961 275.48 156.863C275.48 155.764 274.589 154.873 273.491 154.873Z"
            fill="#DDE3E9" />
        <path
            d="M236.156 161.505H163.909C162.811 161.505 161.92 162.395 161.92 163.494C161.92 164.593 162.811 165.484 163.909 165.484H236.156C237.255 165.484 238.145 164.593 238.145 163.494C238.145 162.395 237.255 161.505 236.156 161.505Z"
            fill="#DDE3E9" />
        <path
            d="M292.449 164.94C295.078 164.94 297.209 162.808 297.209 160.178C297.209 157.549 295.078 155.417 292.449 155.417C289.82 155.417 287.689 157.549 287.689 160.178C287.689 162.808 289.82 164.94 292.449 164.94Z"
            fill="#DDE3E9" />
        <path
            d="M292.449 162.219C293.576 162.219 294.489 161.305 294.489 160.178C294.489 159.051 293.576 158.138 292.449 158.138C291.322 158.138 290.409 159.051 290.409 160.178C290.409 161.305 291.322 162.219 292.449 162.219Z"
            fill="#AFB9C5" />
        <path
            d="M306.08 242.818H158.52C157.018 242.818 155.8 244.036 155.8 245.539V266.624C155.8 268.126 157.018 269.344 158.52 269.344H306.08C307.582 269.344 308.8 268.126 308.8 266.624V245.539C308.8 244.036 307.582 242.818 306.08 242.818Z"
            fill="white" />
        <path
            d="M273.491 250.776H163.909C162.811 250.776 161.92 251.667 161.92 252.765C161.92 253.864 162.811 254.755 163.909 254.755H273.491C274.589 254.755 275.48 253.864 275.48 252.765C275.48 251.667 274.589 250.776 273.491 250.776Z"
            fill="#DDE3E9" />
        <path
            d="M236.156 257.408H163.909C162.811 257.408 161.92 258.298 161.92 259.397C161.92 260.496 162.811 261.387 163.909 261.387H236.156C237.255 261.387 238.145 260.496 238.145 259.397C238.145 258.298 237.255 257.408 236.156 257.408Z"
            fill="#DDE3E9" />
        <path
            d="M292.449 260.842C295.078 260.842 297.209 258.711 297.209 256.081C297.209 253.452 295.078 251.32 292.449 251.32C289.82 251.32 287.689 253.452 287.689 256.081C287.689 258.711 289.82 260.842 292.449 260.842Z"
            fill="#DDE3E9" />
        <path
            d="M292.449 258.122C293.576 258.122 294.489 257.208 294.489 256.081C294.489 254.954 293.576 254.041 292.449 254.041C291.322 254.041 290.409 254.954 290.409 256.081C290.409 257.208 291.322 258.122 292.449 258.122Z"
            fill="#F2F2F2" />
        <path
            d="M306.08 210.851H158.52C157.018 210.851 155.8 212.069 155.8 213.571V234.656C155.8 236.159 157.018 237.377 158.52 237.377H306.08C307.582 237.377 308.8 236.159 308.8 234.656V213.571C308.8 212.069 307.582 210.851 306.08 210.851Z"
            fill="white" />
        <path
            d="M273.491 218.808H163.909C162.811 218.808 161.92 219.699 161.92 220.798C161.92 221.897 162.811 222.787 163.909 222.787H273.491C274.589 222.787 275.48 221.897 275.48 220.798C275.48 219.699 274.589 218.808 273.491 218.808Z"
            fill="#DDE3E9" />
        <path
            d="M236.156 225.44H163.909C162.811 225.44 161.92 226.331 161.92 227.429C161.92 228.528 162.811 229.419 163.909 229.419H236.156C237.255 229.419 238.145 228.528 238.145 227.429C238.145 226.331 237.255 225.44 236.156 225.44Z"
            fill="#DDE3E9" />
        <path
            d="M292.449 228.875C295.078 228.875 297.209 226.743 297.209 224.114C297.209 221.484 295.078 219.353 292.449 219.353C289.82 219.353 287.689 221.484 287.689 224.114C287.689 226.743 289.82 228.875 292.449 228.875Z"
            fill="#DDE3E9" />
        <path
            d="M292.449 226.154C293.576 226.154 294.489 225.241 294.489 224.114C294.489 222.987 293.576 222.073 292.449 222.073C291.322 222.073 290.409 222.987 290.409 224.114C290.409 225.241 291.322 226.154 292.449 226.154Z"
            fill="#F2F2F2" />
        <path
            d="M306.08 178.883H158.52C157.018 178.883 155.8 180.101 155.8 181.604V202.689C155.8 204.191 157.018 205.409 158.52 205.409H306.08C307.582 205.409 308.8 204.191 308.8 202.689V181.604C308.8 180.101 307.582 178.883 306.08 178.883Z"
            fill="white" />
        <path
            d="M273.491 186.841H163.909C162.811 186.841 161.92 187.732 161.92 188.83C161.92 189.929 162.811 190.82 163.909 190.82H273.491C274.589 190.82 275.48 189.929 275.48 188.83C275.48 187.732 274.589 186.841 273.491 186.841Z"
            fill="#DDE3E9" />
        <path
            d="M236.156 193.472H163.909C162.811 193.472 161.92 194.363 161.92 195.462C161.92 196.561 162.811 197.451 163.909 197.451H236.156C237.255 197.451 238.145 196.561 238.145 195.462C238.145 194.363 237.255 193.472 236.156 193.472Z"
            fill="#DDE3E9" />
        <path
            d="M292.449 196.907C295.078 196.907 297.209 194.776 297.209 192.146C297.209 189.517 295.078 187.385 292.449 187.385C289.82 187.385 287.689 189.517 287.689 192.146C287.689 194.776 289.82 196.907 292.449 196.907Z"
            fill="#DDE3E9" />
        <path
            d="M292.449 194.187C293.576 194.187 294.489 193.273 294.489 192.146C294.489 191.019 293.576 190.106 292.449 190.106C291.322 190.106 290.409 191.019 290.409 192.146C290.409 193.273 291.322 194.187 292.449 194.187Z"
            fill="#F2F2F2" />
        <path fill-rule="evenodd" clip-rule="evenodd"
            d="M429.15 163.495C426.468 161.675 422.901 161.199 419.692 161.199C407.155 161.199 395.372 165.851 385.192 172.783C379.614 176.581 374.624 181.418 370.219 186.455C367.676 189.362 365.409 192.507 363.803 196.005C362.72 198.365 361.977 200.825 361.473 203.362C360.859 206.455 360.371 209.609 360.15 212.753C360.063 213.991 359.344 220.559 361.402 220.671C361.39 220.832 361.387 220.987 361.4 221.125C356.932 228.113 354.171 236.302 351.611 244.067C349.384 250.823 347.4 257.636 346.111 264.626C344.415 273.828 343.301 283.169 342.771 292.504C342.658 294.51 342.58 296.517 342.512 298.526C342.455 300.239 342.398 301.952 342.341 303.666C342.279 305.586 341.941 307.797 342.246 309.705C342.512 311.368 343.95 311.116 344.014 309.462C344.09 307.464 344.078 305.462 344.165 303.463C344.281 300.81 344.401 298.157 344.531 295.504C345.435 277.077 348.825 258.921 355.082 241.515C357.614 234.471 360.515 227.803 364.244 221.287C367.522 215.558 371.466 210.012 375.497 204.847C379.415 199.827 383.488 194.923 388.289 190.67C392.185 187.219 396.47 184.212 400.874 181.415C406.469 177.861 412.053 174.395 418.113 171.667C421.264 170.249 424.473 168.98 427.648 167.62C428.219 167.375 428.832 167.138 429.381 166.854C431.214 165.909 430.61 164.485 429.15 163.495Z"
            fill="#C1DEE2" />
        <path fill-rule="evenodd" clip-rule="evenodd"
            d="M378.716 227.854C383.801 227.854 388.325 228.515 393.01 230.536C397.054 232.281 400.739 234.59 404.317 237.104C409.35 240.64 413.315 244.755 416.09 250.208C417.748 253.466 418.964 258.075 417.85 261.628C416.539 265.813 412.938 269.303 408.195 268.565C405.262 268.11 402.574 266.168 400.345 264.34C397.678 262.154 395.544 259.525 393.781 256.605C390.906 251.842 389.217 246.458 386.774 241.481C385.615 239.118 384.495 236.739 383.107 234.494C382.42 233.383 381.689 232.282 380.646 231.455C380.088 231.013 377.737 230.249 378.636 229.256C365.45 229.429 353.77 239.558 351.238 252.096C351.003 253.265 350.818 254.443 350.624 255.618C350.501 256.361 350.55 259.099 349.887 259.573C348.423 260.619 349.039 257.441 349.101 256.983C349.264 255.801 349.437 254.619 349.619 253.439C350.607 247.022 353.463 241.057 358.226 236.481C363.672 231.248 371.021 227.854 378.716 227.854Z"
            fill="#89C5CC" />
        <path fill-rule="evenodd" clip-rule="evenodd"
            d="M12.2778 212.031C24.971 233.331 39.7545 253.955 48.6326 277.243C48.2748 274.498 47.8955 271.756 47.4709 269.018C45.2182 254.502 42.4185 240.093 39.4764 225.702C37.9782 218.374 36.3936 211.073 34.7684 203.773C33.8943 199.852 33.0309 195.928 32.1388 192.011C31.9227 191.062 31.737 189.404 31.4665 187.725C40.0946 216.045 48.4149 244.386 54.5009 273.386C55.2994 277.192 55.9793 280.991 56.5362 284.784C56.7267 283.919 56.9141 283.054 57.1192 282.191C59.5817 271.847 63.2756 261.586 67.6738 251.915C69.7764 247.29 72.1915 242.766 75.0351 238.551C76.8084 235.923 80.9902 232.8 82.6078 230.109C73.7611 246.339 70.5668 266.645 65.4587 284.29C64.2119 288.596 62.9574 292.894 61.7282 297.201C69.4314 281.749 81.383 269.053 98 263.551C77.8857 276.844 65.821 300.124 57.6911 323.934C57.6643 324.216 57.6324 324.499 57.6049 324.782C59.9972 320.24 63.0107 316.132 67.095 313.255C75.8365 307.096 85.5336 308.891 94.0132 314.174C87.3582 309.942 75.3306 313.795 69.731 318.096C65.7224 321.175 62.2965 325.305 59.3215 329.334C58.6086 330.3 57.6361 331.427 56.6087 332.63C55.1682 341.983 52.8207 351.271 49.4973 360.486C50.0457 357.841 49.6492 353.611 49.8013 351.639C49.8178 351.426 49.8313 351.212 49.8477 351C49.3425 353.017 48.8544 355.012 48.3845 356.974C49.3186 353.229 49.8264 349.32 50.2227 345.37C50.3248 343.673 50.4243 341.975 50.5295 340.278C50.4962 337.057 50.3635 333.823 50.1392 330.584C49.3437 327.436 48.453 324.466 47.7184 321.997C45.0678 313.086 41.182 304.549 36.3994 296.585C32.0357 289.318 26.8124 282.735 20.7825 276.782C17.5318 273.573 14.1298 270.517 10.7757 267.419C9.5628 266.299 7.39493 263.545 5.52002 262.11C19.1747 269.639 33.2292 277.786 43.1904 289.918C42.0226 285.432 40.7541 281.01 39.4123 276.676C32.6052 254.69 24.0101 231.903 12.2778 212.031Z"
            fill="#DDE3E9" />
        <path fill-rule="evenodd" clip-rule="evenodd"
            d="M25.92 332.599C25.92 357.016 27.8532 376.81 53.8 376.81C79.7469 376.81 81.68 357.016 81.68 332.599"
            fill="#C5CFD6" />
        <path fill-rule="evenodd" clip-rule="evenodd"
            d="M-6.39982 204.729H7.33429C7.33429 208.28 5.88603 211.608 3.59655 214.026C1.0784 216.67 -2.50757 218.332 -6.39982 218.332C-9.98511 218.332 -13.2669 216.898 -15.7857 214.63L-6.39982 204.729Z"
            fill="#AFB9C5" />
        <path fill-rule="evenodd" clip-rule="evenodd"
            d="M7.56006 204.729C7.56006 197.249 1.4387 191.126 -6.03994 191.126V204.729H7.56006ZM-12.8399 191.126L-7.39994 203.369L-19.6399 197.927C-18.4295 194.754 -15.7116 192.337 -12.8399 191.126Z"
            fill="#C5CFD6" />
        <path fill-rule="evenodd" clip-rule="evenodd"
            d="M422.881 210.972C421.574 212.36 419.723 213.231 417.665 213.231C413.709 213.231 410.502 210.034 410.502 206.089C410.502 202.145 413.709 198.948 417.665 198.948V185.684C406.411 185.684 397.2 194.869 397.2 206.089C397.2 217.31 406.411 226.494 417.665 226.494C423.576 226.494 428.918 224.001 432.56 220.034L422.881 210.972Z"
            fill="#F2F2F2" />
        <path fill-rule="evenodd" clip-rule="evenodd"
            d="M45.6446 35.3591C45.6419 35.3658 45.6392 35.3725 45.6353 35.3805C45.6392 35.3738 45.6446 35.3471 45.6446 35.3591Z"
            fill="#C5CFD6" />
        <path fill-rule="evenodd" clip-rule="evenodd"
            d="M45.6384 35.3695C45.6384 35.3709 45.6371 35.3736 45.6371 35.3763C45.6371 35.3695 45.6493 35.3492 45.6384 35.3695Z"
            fill="#C5CFD6" />
        <path fill-rule="evenodd" clip-rule="evenodd"
            d="M45.6853 35.2544C45.6758 35.2815 45.6636 35.3072 45.6528 35.3343C45.6582 35.3208 45.6636 35.3099 45.669 35.2964C45.5282 35.6486 45.6176 35.4197 45.6853 35.2544Z"
            fill="#C5CFD6" />
        <path fill-rule="evenodd" clip-rule="evenodd"
            d="M45.6552 35.3364C45.6497 35.3487 45.6443 35.3623 45.6389 35.3745C45.5994 35.4508 45.6552 35.3364 45.6552 35.3364Z"
            fill="#C5CFD6" />
        <path fill-rule="evenodd" clip-rule="evenodd"
            d="M45.6393 35.3696C45.6393 35.3684 45.6393 35.3684 45.6405 35.3672C45.6393 35.3684 45.6393 35.3684 45.6393 35.3696Z"
            fill="#C5CFD6" />
        <path fill-rule="evenodd" clip-rule="evenodd"
            d="M45.6329 35.3791C45.6249 35.3951 45.6701 35.3178 45.6329 35.3791V35.3791Z"
            fill="#C5CFD6" />
        <path fill-rule="evenodd" clip-rule="evenodd"
            d="M45.6387 35.3696L45.6411 35.3672C45.6399 35.3684 45.6399 35.3696 45.6387 35.3696Z"
            fill="#C5CFD6" />
        <path
            d="M74.88 0H15.72C14.2178 0 13 1.21808 13 2.72065V40.1296C13 41.6322 14.2178 42.8502 15.72 42.8502H74.88C76.3822 42.8502 77.6 41.6322 77.6 40.1296V2.72065C77.6 1.21808 76.3822 0 74.88 0Z"
            fill="#DDE3E9" />
        <path fill-rule="evenodd" clip-rule="evenodd"
            d="M37.48 12.2429L18.44 42.8502H56.52L37.48 12.2429Z" fill="#AFB9C5" />
        <path fill-rule="evenodd" clip-rule="evenodd"
            d="M56.18 20.4049L39.52 42.8503H72.84L56.18 20.4049Z" fill="#C5CFD6" />
        <path
            d="M63.32 20.4049C66.7 20.4049 69.44 17.6642 69.44 14.2835C69.44 10.9027 66.7 8.16199 63.32 8.16199C59.94 8.16199 57.2 10.9027 57.2 14.2835C57.2 17.6642 59.94 20.4049 63.32 20.4049Z"
            fill="white" />
        <path fill-rule="evenodd" clip-rule="evenodd"
            d="M369.995 325.788C369.998 325.795 370.001 325.802 370.005 325.81C370.001 325.803 369.995 325.776 369.995 325.788Z"
            fill="#C5CFD6" />
        <path fill-rule="evenodd" clip-rule="evenodd"
            d="M370.002 325.799C370.002 325.8 370.003 325.803 370.003 325.806C370.003 325.799 369.991 325.778 370.002 325.799Z"
            fill="#C5CFD6" />
        <path fill-rule="evenodd" clip-rule="evenodd"
            d="M369.955 325.684C369.964 325.711 369.976 325.737 369.987 325.764C369.982 325.75 369.976 325.739 369.971 325.726C370.112 326.078 370.022 325.849 369.955 325.684Z"
            fill="#C5CFD6" />
        <path fill-rule="evenodd" clip-rule="evenodd"
            d="M369.985 325.766C369.991 325.778 369.996 325.791 370.001 325.803C370.04 325.878 369.985 325.766 369.985 325.766Z"
            fill="#C5CFD6" />
        <path fill-rule="evenodd" clip-rule="evenodd"
            d="M370.001 325.799C370.001 325.798 370.001 325.798 369.999 325.797C370.001 325.798 370.001 325.798 370.001 325.799Z"
            fill="#C5CFD6" />
        <path fill-rule="evenodd" clip-rule="evenodd"
            d="M370.007 325.808C370.015 325.824 369.97 325.747 370.007 325.808V325.808Z"
            fill="#C5CFD6" />
        <path fill-rule="evenodd" clip-rule="evenodd"
            d="M370.001 325.799L369.999 325.797C370 325.798 370 325.799 370.001 325.799Z"
            fill="#C5CFD6" />
        <path
            d="M324.44 273.425H415.56C417.062 273.425 418.28 274.643 418.28 276.146V334.64C418.28 336.143 417.062 337.361 415.56 337.361H324.44C322.938 337.361 321.72 336.143 321.72 334.64V276.146C321.72 274.643 322.938 273.425 324.44 273.425Z"
            fill="#DDE3E9" />
        <path fill-rule="evenodd" clip-rule="evenodd"
            d="M382.426 291.79L410.344 337.361H354.509L382.426 291.79Z" fill="#AFB9C5" />
        <path fill-rule="evenodd" clip-rule="evenodd"
            d="M353.642 303.996L378.323 337.361H328.961L353.642 303.996Z" fill="#C5CFD6" />
        <path
            d="M343.14 304.033C338.07 304.033 333.96 299.922 333.96 294.85C333.96 289.779 338.07 285.668 343.14 285.668C348.21 285.668 352.32 289.779 352.32 294.85C352.32 299.922 348.21 304.033 343.14 304.033Z"
            fill="white" />
    </g>
    <path fill-rule="evenodd" clip-rule="evenodd"
        d="M86.4817 116.643C90.4665 124.07 89.993 142.91 84.843 144.237C82.7893 144.767 78.4143 143.47 73.9615 140.786L76.7561 160.56H60.2527L65.9338 134.078C62.7654 130.359 60.6211 125.801 60.9794 120.694C62.012 105.978 82.4969 109.215 86.4817 116.643Z"
        fill="#B28B67" />
    <path fill-rule="evenodd" clip-rule="evenodd"
        d="M77.5346 109.413C82.1651 109.81 86.2999 111.222 87.4718 112.061C87.4718 116.445 86.6223 117.745 79.367 117.631C77.5844 118.572 76.214 120.193 74.7867 122.318C75.4178 131.118 77.0889 135.519 79.7995 135.519C83.8654 135.519 87.315 132.938 89.099 132.938C90.3995 132.938 90.1092 134.565 89.2471 135.772C88.5359 136.767 85.0724 137.727 85.0724 139.27C85.0724 140.064 85.7962 140.134 86.4993 140.139L86.8456 140.139C87.371 140.14 87.8089 140.169 87.8089 140.535C87.8089 142.049 88.2898 144.896 85.6619 144.896C83.0025 144.896 75.3773 143.926 74.0705 139.979C73.2272 137.432 72.6819 132.154 72.4347 124.145C72.2736 124.124 72.1093 124.114 71.9427 124.114C69.664 124.114 67.8168 125.962 67.8168 128.24C67.8168 129.397 68.2929 130.443 69.0597 131.192C68.1051 132.539 67.0352 133.947 65.8092 135.399C61.2033 132.636 57.7856 124.547 62.2885 116.776C63.5331 112.969 66.3508 110.936 69.6785 109.992C72.3741 108.864 75.1724 108.737 77.5346 109.413Z"
        fill="#282A2C" />
    <path fill-rule="evenodd" clip-rule="evenodd"
        d="M54.7516 217.634L79.6821 305.12L97.8716 369.603H111.138L91.8093 217.634H54.7516Z"
        fill="#1D3441" />
    <path fill-rule="evenodd" clip-rule="evenodd"
        d="M48.0845 217.634C47.5079 262.725 45.5416 287.319 44.9361 291.416C44.3307 295.513 35.176 321.575 17.4721 369.603H31.2155C53.7539 323.528 66.3354 297.466 68.9601 291.416C71.5847 285.366 79.6845 260.772 91.8843 217.634H48.0845Z"
        fill="#324854" />
    <path fill-rule="evenodd" clip-rule="evenodd"
        d="M18.0853 371.942C17.316 373.996 16.9313 375.532 16.9313 376.552C16.9313 377.792 17.1379 379.601 17.5511 381.98C18.9896 381.98 31.9177 381.98 56.3353 381.98C57.3432 378.648 56.7614 376.849 54.5899 376.584C52.4185 376.318 50.6146 376.078 49.1783 375.864L31.1518 367.828C30.8049 367.673 30.3983 367.829 30.2437 368.176C30.2411 368.182 30.2385 368.188 30.236 368.194L29.0773 371.004C27.0671 371.942 25.4336 372.411 24.1768 372.411C23.1557 372.411 21.7455 371.999 19.9463 371.174L19.9463 371.174C19.2558 370.858 18.4395 371.161 18.123 371.851C18.1093 371.881 18.0968 371.911 18.0853 371.942Z"
        fill="#E4E4E4" />
    <path fill-rule="evenodd" clip-rule="evenodd"
        d="M97.8517 371.942C97.0824 373.996 96.6978 375.532 96.6978 376.552C96.6978 377.792 96.9044 379.601 97.3175 381.98C98.756 381.98 111.684 381.98 136.102 381.98C137.11 378.648 136.528 376.849 134.356 376.584C132.185 376.318 130.381 376.078 128.945 375.864L110.918 367.828C110.571 367.673 110.165 367.829 110.01 368.176C110.008 368.182 110.005 368.188 110.002 368.194L108.844 371.004C106.834 371.942 105.2 372.411 103.943 372.411C102.922 372.411 101.512 371.999 99.7127 371.174L99.7127 371.174C99.0223 370.858 98.206 371.161 97.8894 371.851C97.8758 371.881 97.8632 371.911 97.8517 371.942Z"
        fill="#E4E4E4" />
    <path fill-rule="evenodd" clip-rule="evenodd"
        d="M18.7653 198.748L30.9447 200.517C19.3093 225.762 12.4777 240.421 10.4499 244.495L10.3205 244.753C10.1373 245.117 10.0032 245.373 9.91819 245.52C7.7937 249.203 10.2922 255.619 11.269 259.016C6.33281 260.441 7.90926 252.814 1.66779 254.717C0.261139 255.145 -1.0848 255.708 -2.39919 256.242L-2.79259 256.401C-6.65229 257.955 -10.2628 259.118 -14.3726 255.709C-15.0663 255.133 -15.6506 253.252 -13.4458 252.155C-7.95269 249.424 0.112431 244.426 1.36613 242.584C3.07576 240.072 8.8755 225.46 18.7653 198.748ZM112.76 206.363L133.518 223.961C139.341 225.977 144.159 228.317 147.974 230.978C148.855 231.901 149.87 233.716 145.991 233.144C145.692 233.1 145.393 233.056 145.093 233.015L144.644 232.954C141.21 232.495 137.931 232.292 137.373 233.436C136.742 234.729 138.991 236.485 137.778 238.204C136.969 239.35 133.752 236.109 128.127 228.482L107.087 217.982L112.76 206.363Z"
        fill="#B28B67" />
    <path fill-rule="evenodd" clip-rule="evenodd"
        d="M69.67 149.098L77.2168 146.602C87.4541 172.176 102.722 196.92 128.231 217.82L121.923 228.703C99.5039 215.496 78.2817 205.238 69.67 185.421C66.7796 178.77 69.4341 157.05 69.67 149.098Z"
        fill="#D6E0E7" />
    <path fill-rule="evenodd" clip-rule="evenodd"
        d="M43.7493 221.072C65.3676 223.364 82.3836 223.364 94.7973 221.072C96.3352 220.788 96.5779 218.213 95.8646 216.465C84.7578 189.251 77.1414 165.505 77.1414 146.602C75.1035 147.63 71.5368 147.784 66.4415 147.064C52.7479 166.544 46.4535 188.895 43.7493 221.072Z"
        fill="#323337" />
    <path fill-rule="evenodd" clip-rule="evenodd"
        d="M63.0574 145.075L63.0374 145.431L68.744 145.431C70.0595 153.168 74.1803 256.966 86.8163 292.631L87.2018 293.691H17.1963C18.714 261.978 30.686 223.883 42.8138 192.005C32.0898 201.818 22.743 218.446 14.7734 241.889L1.66058 238.523C11.4102 196.511 31.4552 165.632 61.7957 145.886L61.9936 145.431L62.5011 145.431L63.0574 145.075Z"
        fill="#E9F0F7" />
    <path fill-rule="evenodd" clip-rule="evenodd"
        d="M195.701 176.666C199.106 183.005 198.701 199.087 194.3 200.22C192.545 200.672 188.806 199.565 185 197.274L187.389 214.152H173.285L178.14 191.548C175.432 188.373 173.599 184.483 173.906 180.124C174.788 167.562 192.295 170.326 195.701 176.666Z"
        fill="#DEBB9B" />
    <path fill-rule="evenodd" clip-rule="evenodd"
        d="M187.662 169.359C185.803 169.054 180.797 168.845 179.874 168.845C179.285 168.845 178.645 168.98 178.296 168.439C178.01 167.996 178.115 167.247 178.029 166.732C177.93 166.135 177.789 165.546 177.647 164.958C177.241 163.285 176.629 161.693 175.771 160.198C174.162 157.395 171.804 155.198 168.828 153.92C165.541 152.509 161.822 152.186 158.287 152.472C154.504 152.779 151.08 154.026 147.508 155.2C144.104 156.318 140.539 156.758 136.979 156.212C133.392 155.662 130.682 153.72 127.656 151.877C124.559 149.991 121.02 148.757 117.358 149.04C113.94 149.305 110.79 150.715 107.964 152.598C105.32 154.359 103.138 156.479 101.906 159.462C100.581 162.671 100.582 166.193 102.762 169.029C105.92 173.139 111.784 174.202 116.662 174.097C119.484 174.036 122.255 173.521 124.919 172.586C128.472 171.337 131.542 169.222 134.866 167.506C136.426 166.7 138.038 166.039 139.728 165.562C141.368 165.1 142.984 164.887 144.469 165.877C146.039 166.924 147.447 167.952 149.244 168.607C150.968 169.236 152.794 169.588 154.63 169.573C158.204 169.546 161.727 168.434 165.197 167.689C168.027 167.082 171.056 166.476 173.941 167.06C175.145 167.304 176.904 167.807 177.339 169.056C170.02 170.381 167.145 179.422 169.208 186.059C170.322 189.641 177.016 193.828 179.619 191.945C181.268 190.752 180.267 189.186 179.619 188.152C178.378 186.172 177.954 183.628 180.25 182.25C182.23 181.061 184.312 183.884 184.351 183.881C184.896 183.838 189.599 181.182 192.839 177.305C196.036 177.495 196.521 175.39 195.757 173.668C194.994 171.946 190.23 169.78 187.662 169.359Z"
        fill="url(#paint0_linear)" />
    <path
        d="M167.408 365C192.399 365 212.659 345.685 212.659 321.859C212.659 298.032 192.399 278.717 167.408 278.717C142.416 278.717 122.156 298.032 122.156 321.859C122.156 345.685 142.416 365 167.408 365Z"
        fill="#C5CFD6" />
    <path fill-rule="evenodd" clip-rule="evenodd"
        d="M245.622 284.882C248.606 292.599 253.816 317.957 260.076 356.259L252.921 358.344C245.391 341.699 239.945 327.205 237.759 319.558C234.017 306.464 231.17 294.943 230.45 290.64C228.734 280.38 243.65 279.782 245.622 284.882ZM223.048 306.398C218.474 307.056 213.498 307.718 208.467 308.357L207.028 308.539C206.788 308.569 206.548 308.599 206.308 308.629L204.868 308.809C187.115 311.017 169.696 312.857 167.74 313.126C164.036 313.634 161.237 307.821 165.579 306.107C169.448 304.58 178.737 301.231 188.212 298.156L189.228 297.827C189.397 297.773 189.566 297.718 189.736 297.664L190.751 297.34C197.343 295.244 203.799 293.371 208.35 292.429C211.703 291.736 214.953 291.091 218.008 290.508C227.09 288.777 231.795 305.141 223.048 306.398Z"
        fill="#DEBB9B" />
    <path fill-rule="evenodd" clip-rule="evenodd"
        d="M190.658 262.87C226.81 272.071 245.284 277.967 246.08 280.559C246.088 280.588 246.097 280.617 246.104 280.646C246.122 280.668 246.14 280.692 246.157 280.715C253.321 290.556 257.612 338.603 259.021 342.2L245.292 344.246C240.04 324.795 223.237 311.245 223.684 287.95C223.563 287.266 223.533 286.619 223.582 286.006L186.214 267.006V262.87H190.658Z"
        fill="#243C48" />
    <path fill-rule="evenodd" clip-rule="evenodd"
        d="M192.644 262.87C195.734 263.756 206.477 268.089 217.667 272.738L218.806 273.211C226.218 276.296 233.718 279.473 239.226 281.838C248.573 285.851 245.627 300.319 240.334 304.085C240.305 304.316 240.21 304.473 240.04 304.544C211.564 316.331 189.037 310.146 181.512 312.122L178.031 301.156L189.318 297.289C185.899 296.605 182.75 295.995 180.056 295.523C162.653 292.475 157.578 283.17 160.579 262.87H192.644Z"
        fill="#324854" />
    <path fill-rule="evenodd" clip-rule="evenodd"
        d="M167.938 304.363C166.073 304.541 164.749 304.82 163.966 305.201C163.014 305.665 161.702 306.5 160.03 307.707C160.57 308.81 165.415 318.73 174.565 337.465C177.501 336.992 178.664 335.873 178.055 334.108C177.445 332.342 176.953 330.869 176.579 329.686L175.994 312.85C175.982 312.526 175.71 312.272 175.386 312.283C175.381 312.284 175.375 312.284 175.37 312.284L172.777 312.446C171.304 311.255 170.331 310.177 169.86 309.212C169.478 308.429 169.266 307.193 169.225 305.504L169.225 305.504C169.209 304.856 168.67 304.343 168.022 304.358C167.994 304.359 167.966 304.36 167.938 304.363Z"
        fill="#E4E4E4" />
    <path fill-rule="evenodd" clip-rule="evenodd"
        d="M249.494 355.258C248.836 357.011 248.508 358.322 248.508 359.192C248.508 360.251 248.684 361.795 249.037 363.826C250.267 363.826 261.315 363.826 282.183 363.826C283.045 360.982 282.547 359.447 280.692 359.22C278.836 358.993 277.294 358.788 276.067 358.605L260.661 351.746C260.364 351.614 260.017 351.747 259.885 352.043C259.882 352.048 259.88 352.053 259.878 352.058L258.888 354.457C257.17 355.258 255.774 355.658 254.7 355.658C253.827 355.658 252.622 355.306 251.084 354.602L251.084 354.602C250.494 354.332 249.796 354.591 249.526 355.18C249.514 355.206 249.504 355.231 249.494 355.258Z"
        fill="#E4E4E4" />
    <path fill-rule="evenodd" clip-rule="evenodd"
        d="M136.559 249.37L148.602 251.756C136.491 274.298 129.996 286.246 129.118 287.598C127.14 290.641 128.985 296.219 129.667 299.156C127.644 299.626 126.956 298.436 126.219 297.193L126.092 296.98C125.303 295.665 124.372 294.394 121.667 295.065C120.996 295.231 120.34 295.433 119.694 295.647L119.343 295.764L118.993 295.884C118.819 295.943 118.646 296.004 118.473 296.063L118.129 296.183C114.636 297.392 111.405 298.386 107.937 295.194C107.371 294.672 106.956 293.043 108.887 292.208C110.417 291.545 112.179 290.699 113.908 289.804L114.401 289.548C117.924 287.699 121.202 285.701 121.952 284.715C123.523 282.651 128.392 270.869 136.559 249.37ZM255.67 231.324L255.452 231.643C255.416 231.697 255.379 231.75 255.343 231.804L255.127 232.125C253.442 234.642 251.982 237.169 252.666 238.044C253.423 239.012 255.614 237.944 256.48 239.518C257.057 240.568 253.363 241.823 245.397 243.284L229.449 255.497L222.65 246.797L243.944 237.457C247.674 233.744 251.276 230.922 254.75 228.992C255.789 228.661 257.564 228.561 255.67 231.324Z"
        fill="#DEBB9B" />
    <path opacity="0.9" fill-rule="evenodd" clip-rule="evenodd"
        d="M181.333 204.369L186.415 203.498C197.483 214.222 202 239.986 209.376 243.396C216.35 246.62 226.237 243.5 237.988 239.287L241.587 247.318C230.909 258.855 208.163 268.602 198.943 263.038C184.202 254.141 180.798 222.366 181.333 204.369Z"
        fill="white" />
    <path fill-rule="evenodd" clip-rule="evenodd"
        d="M159.18 268.152C179.556 268.152 194.544 268.152 204.144 268.152C206.199 268.152 205.812 265.189 205.515 263.694C202.087 246.437 188.706 227.835 188.706 203.27L175.736 201.239C165.009 218.471 161.299 239.687 159.18 268.152Z"
        fill="#DDE3E9" />
    <path fill-rule="evenodd" clip-rule="evenodd"
        d="M180.035 201.239C191.678 240.88 194.888 267.293 189.664 280.478H149.19C149.83 270.83 151.883 260.627 154.696 250.679C145.53 267.194 137.825 279.083 131.581 286.348L122.156 284.504C128.228 246.899 145.809 219.144 174.9 201.239L180.035 201.239Z"
        fill="#F4FAFF" />
    <path fill-rule="evenodd" clip-rule="evenodd"
        d="M358.656 139.534C353.54 144.963 349.617 161.15 353.719 163.459C355.355 164.379 359.397 164.271 363.824 162.997L356.89 179.234L371.013 183.002L372.234 159.105C375.8 156.654 378.682 153.254 379.549 148.813C382.045 136.018 363.772 134.105 358.656 139.534Z"
        fill="#784931" />
    <path fill-rule="evenodd" clip-rule="evenodd"
        d="M366.081 134.128C368.169 134.056 371.026 134.605 372.169 135.055C371.929 133.274 372.143 131.419 372.827 129.739C373.492 128.107 374.636 126.871 375.741 125.552C376.25 124.943 376.802 124.351 377.49 123.965C378.191 123.572 378.99 123.403 379.773 123.429C380.574 123.456 381.359 123.681 382.072 124.041C382.388 124.2 382.647 124.432 382.952 124.605C383.264 124.781 383.483 124.615 383.783 124.469C384.507 124.119 385.435 124.098 386.202 124.207C387.063 124.329 387.894 124.685 388.615 125.17C389.317 125.643 389.944 126.273 390.335 127.051C390.508 127.398 390.649 127.777 390.701 128.168C390.722 128.328 390.709 128.416 390.84 128.508C390.96 128.592 391.116 128.635 391.242 128.719C392.454 129.525 393.319 130.857 393.585 132.342C393.74 133.208 393.547 134.609 393.092 136.115C392.636 137.621 390.194 141.217 388.519 142.319C387.023 143.302 385.106 143.703 383.376 143.641C384.126 145.161 384.432 146.893 384.543 148.601C384.664 150.456 384.546 152.319 384.194 154.155C383.859 155.899 383.384 157.712 382.531 159.279C381.734 160.744 380.583 161.814 379.02 162.27C378.304 162.479 377.566 162.582 376.831 162.661C376.107 162.738 375.382 162.808 374.657 162.766C373.283 162.687 371.796 162.241 371.071 160.941C370.81 160.472 370.538 159.898 370.397 159.373C370.346 159.184 370.318 159.062 370.476 158.933C370.665 158.778 370.928 158.691 371.145 158.589C372.386 158.004 373.318 157.031 373.84 155.719C374.37 154.387 374.477 152.514 373.297 151.556C371.841 150.374 369.79 150.738 368.106 151.137C368.072 148.771 367.322 146.448 365.58 144.902C363.654 143.192 361.134 142.379 359.104 140.811C358.575 140.402 358.044 139.957 357.741 139.332C357.615 139.07 357.474 138.737 357.476 138.436C357.479 138.042 357.802 137.796 358.063 137.557C359.452 136.292 363.992 134.2 366.081 134.128Z"
        fill="url(#paint1_linear)" />
    <path fill-rule="evenodd" clip-rule="evenodd"
        d="M367.938 231.671L345.827 308.933L329.695 365.88H317.929L335.072 231.671H367.938Z"
        fill="url(#paint2_linear)" />
    <path fill-rule="evenodd" clip-rule="evenodd"
        d="M373.851 231.671C374.362 271.493 376.106 293.213 376.643 296.831C377.18 300.449 385.299 323.465 401.001 365.88H388.812C368.823 325.19 357.664 302.174 355.337 296.831C353.009 291.488 345.825 269.768 335.005 231.671H373.851Z"
        fill="#012043" />
    <path fill-rule="evenodd" clip-rule="evenodd"
        d="M402.09 376.811L401.48 364.058H388.673C382.6 368.309 374.672 371.75 364.889 374.382V376.811H388.063L395.991 375.596V376.811H402.09Z"
        fill="url(#paint3_linear)" />
    <path fill-rule="evenodd" clip-rule="evenodd"
        d="M331.346 376.811L330.736 364.058H317.929C311.857 368.309 303.928 371.75 294.145 374.382V376.811H317.319L325.248 375.596V376.811H331.346Z"
        fill="url(#paint4_linear)" />
    <path fill-rule="evenodd" clip-rule="evenodd"
        d="M401.467 223.565L390.559 223.236C397.604 249.93 401.412 264.062 401.985 265.632C403.272 269.164 400.102 274.365 398.725 277.172C400.486 278.031 401.451 277.247 402.391 276.282L402.557 276.11C403.745 274.87 404.965 273.48 407.772 274.902C408.374 275.207 408.957 275.541 409.526 275.885L409.836 276.073L410.143 276.262C413.766 278.51 416.964 280.874 421.627 278.225C422.322 277.831 423.122 276.282 421.365 274.99C419.865 273.886 418.142 272.504 416.492 271.092L416.081 270.738C413.083 268.143 410.415 265.516 409.906 264.388C408.8 261.939 405.987 248.331 401.467 223.565ZM318.21 215.779L297.37 227.914C291.975 228.776 287.406 230.073 283.664 231.805C282.753 232.473 281.586 233.898 285.063 233.994C288.539 234.09 292.191 234.348 292.543 235.57C292.895 236.792 290.66 237.976 291.455 239.658C291.985 240.78 295.294 238.452 301.381 232.676L321.373 226.763L318.21 215.779Z"
        fill="#B28B67" />
    <path fill-rule="evenodd" clip-rule="evenodd"
        d="M364.635 172.575L358.432 169.247C345.555 189.928 328.414 209.116 302.925 223.39L306.756 233.826C328.361 225.772 348.468 220.099 359.039 204.178C362.587 198.834 363.616 179.531 364.635 172.575Z"
        fill="#C5CFD6" />
    <path fill-rule="evenodd" clip-rule="evenodd"
        d="M376.186 239.175C356.961 237.856 342.106 235.248 331.623 231.352C330.324 230.869 330.509 228.592 331.401 227.181C345.29 205.208 355.597 185.717 358.509 169.273C360.13 170.479 363.22 171.159 367.779 171.314C376.732 190.359 378.783 210.768 376.186 239.175Z"
        fill="#323337" />
    <path fill-rule="evenodd" clip-rule="evenodd"
        d="M371.062 170.105L371.025 170.418L366.043 169.544C363.703 176.073 344.115 265.737 327.591 294.826L327.091 295.689L388.199 306.418C391.76 278.597 387.178 243.623 381.503 214.033C389.352 224.213 394.949 240.111 398.294 261.725L410.259 260.807C408.221 222.766 395.48 192.832 372.038 171.004L371.935 170.579L371.493 170.5L371.062 170.105Z"
        fill="#DDE3E9" />
</svg>
