<svg width="414" height="417" viewBox="0 0 414 417" fill="none" xmlns="http://www.w3.org/2000/svg">
    <defs>
        <linearGradient id="paint0_linear" x1="27.4798" y1="343.585" x2="27.4798" y2="361.551"
            gradientUnits="userSpaceOnUse">
            <stop stop-color="#F3F9FA" />
            <stop offset="1" stop-color="#E2F0F0" />
        </linearGradient>
        <linearGradient id="paint1_linear" x1="26.4176" y1="321" x2="26.4176" y2="358.814"
            gradientUnits="userSpaceOnUse">
            <stop stop-color="#F3F9FA" />
            <stop offset="1" stop-color="#E2F0F0" />
        </linearGradient>
        <linearGradient id="paint2_linear" x1="215.552" y1="273.018" x2="186.891" y2="309.951"
            gradientUnits="userSpaceOnUse">
            <stop stop-color="#3A83A3" />
            <stop offset="1" stop-color="#2C6681" />
        </linearGradient>
    </defs>
    <g opacity="0.504511">
        <path opacity="0.504511" fill-rule="evenodd" clip-rule="evenodd"
            d="M534.996 344.835C543.396 398.397 339.686 433.333 164.349 408.952C-10.988 384.571 -91.4244 289.359 -7.75637 238.627C75.9116 187.895 526.596 291.274 534.996 344.835Z"
            fill="#F2F2F2" />
    </g>
    <path opacity="0.2" fill-rule="evenodd" clip-rule="evenodd"
        d="M367.773 225.118C367.624 226.069 367.424 226.995 367.162 227.887C367.511 227.104 367.698 226.155 367.773 225.118ZM294.819 100.711C292.618 98.2352 291.066 101.811 291.183 103.701C291.322 105.929 292.332 107.957 293.534 109.756C293.663 109.946 293.627 109.937 293.66 109.672C293.678 109.803 293.722 109.9 293.787 109.97C293.725 111.143 293.604 112.344 293.663 113.382C293.829 116.354 294.175 119.344 294.678 122.278C294.8 122.992 294.94 123.7 295.097 124.401C293.909 123.389 292.307 122.49 291.68 122.208C290.053 121.479 287.545 120.692 285.929 121.927C284.588 122.952 284.524 124.762 285.619 125.987C286.924 127.445 289.305 127.392 291.083 127.25C291.185 127.241 291.343 127.229 291.54 127.211L291.776 127.19C293.225 127.054 296.003 126.719 295.163 126.139C295.242 126.168 295.405 126.24 295.58 126.338C295.674 126.682 295.773 127.025 295.876 127.366C295.851 127.381 295.829 127.397 295.802 127.411C295.832 127.398 295.852 127.385 295.878 127.372C296.91 130.783 298.38 134.031 300.305 137.07C299.585 136.787 298.839 136.572 298.083 136.477C295.842 136.193 291.13 137.934 293.636 140.916C295.173 142.746 297.259 142.149 299.276 141.37L299.528 141.272C299.612 141.239 299.695 141.206 299.779 141.173L300.028 141.074C300.899 140.729 301.742 140.404 302.506 140.285C305.15 143.976 308.067 147.514 311.123 150.933C310.935 150.991 310.771 151.114 310.677 151.304C310.336 151.131 309.992 150.938 309.647 150.743L309.235 150.511C308.479 150.088 307.732 149.699 307.039 149.551C305.401 149.204 302.044 148.994 300.806 150.459C299.284 152.261 300.916 153.725 302.714 154.07C305.322 154.572 308.735 153.298 311.244 152.437C311.531 152.488 311.844 152.404 312.031 152.174C312.087 152.156 312.142 152.138 312.196 152.121C315.291 155.523 318.504 158.814 321.698 162.032C321.664 162.03 321.63 162.028 321.594 162.026C320.761 161.48 319.868 161.031 318.899 160.796C316.659 160.25 314.022 160.248 312.204 161.869C310.393 163.483 309.751 166.306 311.625 168.119C315.376 171.747 320.902 163.474 322.794 163.129C326.039 166.365 329.471 169.388 332.956 172.351C332.561 172.23 332.155 172.142 331.735 172.102C328.317 171.775 320.294 175.965 324.489 180.087C327.011 182.566 329.807 180.043 332.266 177.445L332.479 177.219C333.504 176.128 334.467 175.048 335.321 174.347C338.606 177.108 341.908 179.85 345.118 182.699C343.367 182.235 341.676 182.166 339.799 182.733C337.857 183.321 334.724 184.787 335.951 187.409C337.2 190.075 340.962 188.862 342.922 188.015C343.991 187.553 346.134 185.995 348.016 185.339C353.138 190.174 357.574 195.5 360.933 201.774C363.03 205.691 364.621 209.877 365.741 214.178C366.456 216.924 367.865 221.535 367.583 225.108C368.927 217.955 366.496 209.365 363.878 202.971C361.471 197.092 357.868 191.931 353.649 187.286C354.708 184.101 363.621 179.507 358.292 176.548C355.463 174.984 352.565 177.58 351.946 180.329C351.521 182.219 352.169 184.592 352.856 186.426C351.528 185.01 350.148 183.639 348.726 182.314C346.761 180.483 344.749 178.705 342.717 176.949C346.065 173.804 349.233 164.814 344.745 163.344C338.116 161.179 341.308 173.442 341.77 175.74C341.902 175.748 342.004 175.708 342.079 175.623C342.042 175.833 341.999 176.059 341.946 176.285C338.058 172.942 334.112 169.665 330.296 166.242C330.64 165.988 331.187 165.017 331.616 164.5C332.585 163.335 333.513 162.118 334.191 160.755C335.262 158.602 336.294 155.167 333.456 153.9C330.369 152.52 328.902 156.405 328.881 158.723C328.872 159.685 329.026 160.617 329.199 161.549L329.316 162.171C329.394 162.585 329.469 163.001 329.53 163.42C329.551 163.567 329.542 163.868 329.536 164.193L329.533 164.324L329.532 164.455C329.529 165.132 329.581 165.758 329.995 165.168C329.963 165.519 329.959 165.772 329.975 165.952C329.289 165.335 328.61 164.71 327.934 164.082C327.965 164.002 327.989 163.916 327.994 163.815C328.03 163.124 327.335 162.858 326.847 163.061C325.956 162.214 325.073 161.356 324.206 160.481C322.369 158.628 320.505 156.722 318.654 154.776C319.056 154.431 318.896 153.953 319.272 153.587C319.647 153.221 320.385 153.019 320.826 152.68C321.935 151.825 322.855 150.581 323.52 149.356C324.618 147.332 326.037 143.087 322.829 142.122C319.523 141.127 317.845 145.213 317.632 147.768C317.591 148.263 317.961 152.723 318.245 154.343C314.82 150.725 311.451 146.972 308.399 143.153C309.325 143.145 311.948 141.249 312.478 140.731C313.773 139.47 315.83 136.682 313.561 135.206C311.544 133.897 309.057 135.793 308.194 137.635C308.053 137.938 307.553 140.761 307.514 142.028C306.25 140.409 305.045 138.78 303.924 137.146C303.177 136.059 302.478 134.944 301.824 133.805C301.982 133.716 302.13 133.561 302.27 133.367C305.634 132.796 309.924 127.547 305.972 125.721C304.09 124.852 302.05 126.645 301.128 128.113C300.939 128.413 300.633 129.922 300.384 131.113C298.504 127.34 297.067 123.346 295.973 119.251C296.266 119.178 296.514 118.954 296.546 118.57C298.18 117.638 299.47 116.863 300.61 115.072C301.319 113.96 302.594 111.419 300.513 110.802C297.804 109.998 296.102 114.136 295.881 116.173C295.855 116.41 295.856 117.098 295.865 117.728C295.771 117.716 295.676 117.717 295.582 117.733C294.96 115.198 294.464 112.629 294.069 110.056C295.547 109.581 295.803 101.816 294.819 100.711ZM288.136 107.38C285.845 106.244 282.79 107.561 284.064 110.565C285.429 113.781 290.476 113.821 293.326 113.757C293.18 113.749 292.867 112.97 292.554 112.152L292.461 111.907C292.197 111.211 291.945 110.541 291.808 110.347C290.88 109.032 289.545 108.08 288.136 107.38Z"
        fill="#324854" />
    <path opacity="0.2" fill-rule="evenodd" clip-rule="evenodd"
        d="M17.5751 138.715C17.7073 139.347 17.892 139.962 18.1382 140.552C17.8028 140.036 17.6325 139.405 17.5751 138.715ZM70.9434 48.9403C72.5509 47.1495 73.6831 49.7347 73.5966 51.1013C73.4945 52.7127 72.7564 54.1789 71.8777 55.4803C71.7834 55.6181 71.8103 55.6114 71.786 55.4195C71.7725 55.5143 71.7404 55.5844 71.6928 55.6351C71.7377 56.4833 71.8256 57.3516 71.7828 58.1022C71.6601 60.2517 71.4062 62.4138 71.038 64.5357C70.9484 65.0518 70.8459 65.5637 70.731 66.0711C71.599 65.3387 72.7692 64.6877 73.2271 64.484C74.4154 63.9561 76.2467 63.3858 77.4263 64.2786C78.405 65.0192 78.451 66.3277 77.6508 67.2139C76.698 68.2688 74.9591 68.2313 73.6611 68.1292C73.4507 68.1126 72.9127 68.0702 72.3434 67.9992L72.163 67.9759C71.1985 67.8461 70.2335 67.6345 70.6824 67.3275C70.6252 67.3489 70.5058 67.4008 70.378 67.4714C70.3091 67.7203 70.2368 67.9682 70.1614 68.215C70.1798 68.2257 70.1955 68.2372 70.2153 68.2478C70.1939 68.2385 70.1789 68.2285 70.1601 68.2191C69.4049 70.6863 68.3306 73.0357 66.9242 75.2338C67.4501 75.0286 67.9947 74.8731 68.547 74.8037C70.1827 74.598 73.6228 75.855 71.7922 78.0125C70.739 79.2535 69.335 78.9519 67.9502 78.4462L67.7197 78.3603C66.8755 78.0399 66.0461 77.6711 65.3162 77.5593C63.3837 80.2294 61.2532 82.7883 59.0206 85.2618C59.1573 85.3042 59.2773 85.3925 59.346 85.53C59.525 85.44 59.7056 85.3422 59.8866 85.2419L60.2487 85.0398C60.8518 84.7027 61.4506 84.3778 62.003 84.2614C63.1986 84.0098 65.6501 83.8563 66.5531 84.9156C67.6637 86.218 66.4719 87.277 65.1588 87.5275C63.2548 87.8909 60.763 86.971 58.9314 86.3496C58.7219 86.3864 58.4932 86.3258 58.3566 86.1599C58.3161 86.1468 58.2756 86.1339 58.2363 86.1213C55.9754 88.5828 53.6281 90.9631 51.2951 93.2913L51.3706 93.2871C51.9791 92.8917 52.6317 92.5672 53.339 92.3971C54.9751 92.0014 56.8999 91.9985 58.2269 93.17C59.5488 94.3366 60.0162 96.3777 58.6474 97.6891C57.0818 99.189 55.0944 97.8793 53.4207 96.4347L53.229 96.2675C52.0561 95.235 51.0563 94.1864 50.4947 94.0851C48.1239 96.4263 45.6171 98.6138 43.071 100.757C43.3601 100.67 43.6565 100.606 43.9629 100.577C46.4586 100.339 52.3148 103.366 49.2505 106.348C47.411 108.139 45.3739 106.324 43.5815 104.45L43.4089 104.268L43.2378 104.087L43.0685 103.907C42.4507 103.25 41.8692 102.629 41.3437 102.202C38.9444 104.199 36.5321 106.183 34.1875 108.245C35.4658 107.908 36.7011 107.858 38.0712 108.267C39.4888 108.691 41.7761 109.75 40.8788 111.647C39.9662 113.575 37.2193 112.699 35.7887 112.088C35.0084 111.754 33.4443 110.628 32.0706 110.154C28.3291 113.653 25.0879 117.506 22.6332 122.043C21.1008 124.877 19.9374 127.904 19.1181 131.014C18.5951 133 17.5649 136.335 17.7695 138.919C16.7908 133.747 18.5684 127.534 20.4824 122.91C22.2422 118.658 24.8745 114.925 27.9573 111.564C27.7334 110.896 27.0273 110.143 26.2324 109.358L26.0667 109.195C25.8446 108.978 25.6178 108.758 25.3945 108.537L25.2278 108.371C23.5981 106.738 22.2747 105.065 24.5707 103.802C26.6372 102.669 28.7522 104.546 29.2028 106.533C29.5123 107.899 29.0389 109.616 28.5366 110.942C29.5064 109.918 30.5145 108.926 31.5532 107.968C32.9887 106.643 34.4586 105.356 35.9425 104.086C33.4995 101.813 31.1896 95.3133 34.4674 94.2484C39.3076 92.6805 36.9729 101.549 36.6344 103.211C36.5385 103.217 36.4638 103.188 36.4089 103.127C36.436 103.279 36.4675 103.442 36.5057 103.606C39.3459 101.187 42.2282 98.8155 45.0155 96.3389C44.7646 96.1553 44.3659 95.4534 44.0525 95.0799C43.3451 94.2379 42.6684 93.3583 42.1739 92.3731C41.3929 90.8162 40.6402 88.3326 42.7131 87.4155C44.9674 86.4164 46.037 89.2253 46.0519 90.9012C46.062 92.0603 45.7427 93.1616 45.576 94.2978C45.5604 94.4042 45.5674 94.6223 45.5717 94.8571L45.574 95.0348C45.5768 95.5289 45.5403 95.9918 45.2359 95.5625C45.2588 95.8158 45.262 95.9993 45.2505 96.1294C45.751 95.6825 46.2475 95.2308 46.7409 94.7759C46.7181 94.7185 46.7012 94.6559 46.6974 94.5833C46.6713 94.0837 47.1791 93.891 47.535 94.0371C48.1861 93.4244 48.8309 92.8039 49.4641 92.1711C50.8063 90.8304 52.1679 89.4515 53.5201 88.0433C53.2271 87.794 53.3439 87.4485 53.0698 87.1838C52.7961 86.9197 52.257 86.7738 51.9351 86.5285C51.1257 85.9113 50.4547 85.0117 49.9696 84.1263C49.1686 82.6633 48.1341 79.594 50.4765 78.8954C52.891 78.1741 54.1148 81.1285 54.2691 82.9759C54.2991 83.3338 54.0269 86.559 53.8191 87.7302C56.3212 85.113 58.7822 82.3977 61.012 79.6353C60.3364 79.6295 58.4215 78.2596 58.0344 77.8857C57.09 76.9738 55.589 74.9585 57.2461 73.8908C58.7195 72.9438 60.5344 74.3134 61.1635 75.6451C61.2669 75.8644 61.631 77.9056 61.659 78.8216C62.5819 77.6502 63.4623 76.4719 64.2815 75.2898C64.8277 74.504 65.3383 73.6973 65.816 72.8736C65.7011 72.8092 65.5931 72.6968 65.4911 72.557C63.0347 72.1453 59.9046 68.3512 62.7908 67.0291C64.1649 66.4004 65.6542 67.6959 66.3266 68.7569C66.4644 68.9739 66.6871 70.0654 66.8684 70.9263C68.2429 68.1975 69.2937 65.3088 70.0939 62.3471C69.8801 62.2947 69.699 62.133 69.6753 61.8547C68.483 61.182 67.5414 60.6218 66.7095 59.3274C66.1927 58.5234 65.2621 56.6864 66.7821 56.2392C68.7602 55.6574 70.0011 58.6484 70.1621 60.1218C70.1809 60.2928 70.18 60.7903 70.1732 61.2462C70.2419 61.2369 70.3113 61.2379 70.3794 61.2498C70.8346 59.4159 71.1981 57.5584 71.4874 55.6979C70.4081 55.3544 70.2242 49.7401 70.9434 48.9403ZM75.5241 53.6123C77.1608 52.8008 79.3426 53.742 78.4325 55.8873C77.4575 58.1847 73.8528 58.2131 71.817 58.1675C72.0208 58.1568 72.6769 56.0501 72.9016 55.7318C73.564 54.7927 74.5179 54.1121 75.5241 53.6123Z"
        fill="#C1DEE2" />
    <g opacity="0.7">
        <path opacity="0.7" fill-rule="evenodd" clip-rule="evenodd"
            d="M332.708 177.588C339.071 177.258 346.942 180.972 347.621 187.889C348.114 192.915 347.961 197.926 348.724 202.944C349.335 206.955 350.625 210.805 352.386 214.458C354.079 217.971 357.59 220.962 358.503 224.715C359.085 227.106 358.76 230.47 357.957 232.809C356.981 235.653 357.499 235.429 359.445 237.815C363.256 242.491 366.689 247.287 369.116 252.872C372.612 260.917 374.904 270.321 373.607 279.127C373.441 280.245 373.246 284.258 371.706 284.539C369.986 284.853 370.79 282.557 370.882 281.816C371.467 277.085 371.987 272.95 371.281 268.146C368.557 249.609 355.258 237.396 346.599 221.663C346.123 220.851 345.118 218.919 344.419 217.645C343.316 215.633 342.207 211.804 340.714 210.312C337.901 207.501 340.487 213.152 341.035 214.23C341.728 215.595 342.49 217.045 343.2 218.241C346.449 223.784 350.075 229.834 353.431 235.548C338.919 238.854 328.698 221.408 324.804 209.939C321.595 200.489 317.756 178.396 332.708 177.588Z"
            fill="#69A1AC" />
        <path opacity="0.7" fill-rule="evenodd" clip-rule="evenodd"
            d="M418.001 160.04C407.363 160.884 400.533 167.903 397.354 177.721C395.641 183.012 395.444 188.447 394.492 193.884C393.06 202.065 389.978 208.264 383.954 214.092C382.089 215.897 380.714 217.75 379.737 219.733C377.797 221.713 376.108 223.953 374.867 226.692C373.282 230.189 372.834 234.386 374.664 237.873C375.156 238.81 376.383 240.692 377.655 241.547C372.893 251.69 370.274 262.798 370.569 273.892C370.748 280.588 371.075 287.288 371.456 293.977C371.559 295.773 372.144 298.738 373.022 295.726C373.826 292.971 372.818 288.646 372.725 285.768C372.271 271.748 371.883 258.999 377.655 245.9C378.26 244.527 378.902 243.165 379.57 241.814C379.609 241.791 379.646 241.764 379.682 241.737C379.708 241.757 379.731 241.778 379.756 241.797C379.799 241.721 379.858 241.63 379.926 241.529C380.118 241.331 380.285 241.082 380.444 240.803C380.956 240.093 381.535 239.26 381.539 238.803C381.539 238.8 381.537 238.794 381.537 238.791C385.11 232.958 389.202 227.447 393.383 222.044C393.351 222.083 397.917 215.867 397.211 219.305C396.871 220.962 393.512 224.116 392.156 225.871C389.156 229.775 385.632 234.721 382.704 239.505C382.31 239.731 381.754 240.843 381.351 241.671C381.129 242.09 380.922 242.513 380.718 242.881C391.092 246.309 399.162 239.405 404.665 231.375C404.672 231.365 404.678 231.355 404.684 231.346C406.359 229.127 408.074 226.924 410.217 225.17C413.793 222.243 417.622 221.727 421.838 220.286C433.334 216.359 438.222 201.46 439.774 190.405C441.526 177.934 432.959 158.81 418.001 160.04Z"
            fill="#89C5CC" />
        <path opacity="0.7" fill-rule="evenodd" clip-rule="evenodd"
            d="M396.987 125.114C386.068 136.477 380.794 152.238 376.617 167.055C371.952 183.603 368.87 200.407 368.752 217.613C368.675 228.917 368.367 240.292 369.027 251.583C369.261 255.593 369.661 259.61 370.296 263.577C370.349 263.903 371.771 272.76 373.131 270.696C373.905 269.522 371.674 261.508 371.505 260.173C370.557 252.654 370.336 245.08 370.382 237.508C370.459 225.039 370.091 212.635 371.355 200.212C371.543 198.357 371.692 196.409 372.133 194.595C372.601 192.666 372.005 193.508 373.529 192.744C375.009 192.002 376.839 192.108 378.375 191.176C384.468 187.481 387.585 177.991 390.012 171.764C392.786 164.643 394.473 157.049 395.82 149.556C396.809 144.05 397.516 138.577 397.916 133C398.042 131.243 398.05 129.405 398.395 127.677C398.488 127.21 398.955 126.386 398.938 125.973C398.902 125.099 398.375 124.585 398.332 123.851C397.875 124.262 397.426 124.684 396.987 125.114Z"
            fill="#89C5CC" />
        <path opacity="0.7" fill-rule="evenodd" clip-rule="evenodd"
            d="M337.452 276.508C337.452 295.3 352.686 310.534 371.479 310.534C390.272 310.534 405.507 295.3 405.507 276.508"
            fill="#89C5CC" />
        <path opacity="0.7" fill-rule="evenodd" clip-rule="evenodd"
            d="M394.799 246.718C403.22 246.097 412.625 252.89 416.687 259.96C419.962 265.66 419.41 273.146 417.388 279.201C416.033 283.256 413.077 289.036 408.147 289.093C401.979 289.163 401.682 281.541 401.563 277.085C401.404 271.16 400.656 265.999 395.987 261.961C394.899 261.02 393.71 260.193 392.611 259.265C392.447 259.127 392.281 258.988 392.116 258.848L391.867 258.638C390.381 257.37 388.956 255.983 388.766 253.924C388.46 250.61 390.331 250.014 393.187 250.629C393.674 250.734 398.58 252.935 397.853 251.195C397.632 250.664 396.822 250.243 395.8 249.927C393.155 249.64 390 249.306 389.093 249.505C379.306 251.652 375.496 265.208 374.484 273.82C374.375 274.75 374.287 275.683 374.21 276.617L372.412 276.617C372.536 274.361 372.701 272.109 373.078 269.879C374.521 261.348 379.031 248.818 388.922 247.433C389.287 247.382 390.629 247.373 392.255 247.468C393.026 247.038 393.889 246.777 394.799 246.718Z"
            fill="#69A1AC" />
    </g>
    <g opacity="0.5">
        <path opacity="0.5" fill-rule="evenodd" clip-rule="evenodd"
            d="M62.0746 115.444C64.0334 112.652 67.6684 105.559 70.4254 104.561C72.2012 103.918 71.6834 110.567 71.7054 111.835C71.7908 116.74 71.3132 121.614 70.7235 126.478C69.661 135.25 66.1867 143.062 61.4216 150.528C58.9695 154.37 56.0934 158.258 52.1099 160.655C50.2763 161.759 48.07 161.944 46.2592 162.895C44.1503 164.002 45.2988 163.107 44.3484 165.305C43.0285 168.356 42.6064 172.292 41.9957 175.547C39.1917 190.492 32.4034 269.491 33.5802 284.692C33.6848 286.04 31.8059 286.362 31.7121 284.717C31.2136 275.996 35.5274 215.599 37.7039 195.848C39.8803 176.097 42.0827 158.647 44.291 151.814C46.9701 143.524 51.8087 133.554 55.8365 125.823C57.7073 122.231 59.7466 118.763 62.0746 115.444Z"
            fill="#69A1AC" />
        <path opacity="0.5" fill-rule="evenodd" clip-rule="evenodd"
            d="M76.6136 212.316C81.7108 208.574 87.228 215.636 82.6156 219.378C80.0658 221.447 77.4001 220.711 75.8994 218.987C74.9252 220.175 74.0134 221.416 73.1372 222.465C70.4679 225.661 67.9449 228.933 65.5337 232.281C60.5247 239.236 56.2321 246.585 51.744 253.799C47.3147 260.919 42.9209 268.076 38.9062 275.376C35.5053 281.561 30.9722 288.838 29.8079 295.619C31.5745 281.238 38.2783 267.415 46.2612 254.737C54.1792 242.163 63.2661 228.431 75.5261 218.508C74.2783 216.674 74.2437 214.054 76.6136 212.316Z"
            fill="#C1DEE2" />
        <path opacity="0.5" fill-rule="evenodd" clip-rule="evenodd"
            d="M-20.1082 177.243C-17.2559 177.801 -12.5952 184.253 -10.244 186.711C-7.44975 189.633 -4.91469 192.746 -2.5251 196.009C2.61919 203.031 7.21986 210.497 11.132 218.283C17.5098 230.975 22.6192 244.005 26.3274 257.826C28.5973 266.287 30.0669 275.056 30.9379 283.763C31.1024 285.406 32.8243 298.067 30.3432 298.408C28.1117 298.716 28.8009 288.794 28.6933 287.445C27.4763 272.219 23.8308 257.405 18.76 243.055C17.6555 239.928 16.6293 236.099 14.863 233.286C13.5909 231.26 14.8539 231.967 12.6184 231.2C10.6989 230.541 8.51198 230.702 6.5464 229.895C2.27637 228.144 -1.14271 224.745 -4.13976 221.326C-9.96408 214.681 -14.5796 207.492 -16.9854 198.977C-18.32 194.256 -19.5464 189.508 -20.227 184.641C-20.4031 183.383 -21.9454 176.884 -20.1082 177.243Z"
            fill="#69A1AC" />
        <path opacity="0.5" fill-rule="evenodd" clip-rule="evenodd"
            d="M-8.85211 69.8931C1.89209 88.5252 10.7212 108.992 16.4223 129.722C19.8764 142.282 22.292 155.17 24.6921 167.966C28.4082 187.778 31.9232 207.588 32.9231 227.752C33.929 248.033 35.9181 271.424 29.2769 290.958C32.5942 271.126 29.4359 250.016 28.8767 230.061C28.6094 220.535 27.835 211.102 26.8192 201.632C25.8334 192.445 24.2229 183.302 22.7232 174.187C21.9926 169.748 21.2254 165.316 20.4442 160.886C20.211 159.564 20.1125 155.642 19.2741 154.739C18.4302 153.83 14.1247 153.46 12.7729 152.793C10.051 151.45 7.49068 149.542 5.22472 147.526C0.880835 143.662 -2.89812 138.613 -5.88078 133.635C-12.7819 122.119 -15.5409 108.064 -15.4015 94.7261C-15.3747 92.1365 -11.2098 64.2504 -12.8825 63.8664C-12.7818 63.7484 -12.6865 63.6267 -12.5967 63.5C-11.3303 65.6202 -10.0876 67.7548 -8.85211 69.8931Z"
            fill="#89C5CC" />
        <path opacity="0.5" fill-rule="evenodd" clip-rule="evenodd"
            d="M107.113 137.092C107.279 136.852 108.358 135.19 107.815 135.296C108.921 135.079 106.293 137.13 109.049 135.872C107.741 137.108 108.496 138.713 108.514 140.377C108.542 143.077 108.09 145.756 107.581 148.399C106.778 152.576 105.58 156.638 103.842 160.523C100.054 168.991 93.6213 177.142 85.9847 182.436C82.2147 185.05 78.5199 185.94 74.2203 187.143C71.5044 187.903 71.289 189.308 69.8474 191.943C66.8462 197.432 63.8983 202.901 61.2515 208.575C58.091 215.35 55.0228 222.133 52.1287 229.027C42.379 252.251 34.4436 276.312 30.2762 301.212C30.1741 286.538 33.5688 271.426 37.8509 257.439C40.9701 247.249 45.0307 237.426 49.3618 227.703C50.4113 225.347 52.0017 222.317 52.4474 219.716C52.7595 217.894 51.8054 216.142 51.3686 214.222C49.6655 206.747 49.7874 198.372 51.2829 190.857C52.9319 182.571 57.7005 178.724 65.7673 177.551C68.7174 177.121 72.4672 177.279 75.1723 176.021C78.1196 174.651 79.3354 170.149 81.0113 167.259C85.5127 159.495 90.861 152.05 97.0024 145.508C98.7029 143.697 100.532 142.026 102.472 140.477C103.695 139.499 106.28 138.295 107.113 137.092Z"
            fill="#89C5CC" />
        <path opacity="0.5" fill-rule="evenodd" clip-rule="evenodd"
            d="M16.6591 285.364H45.2873C46.5744 285.364 47.6179 286.408 47.6179 287.695C47.6179 287.809 47.6096 287.922 47.593 288.035L45.3803 303.038C44.7057 307.612 40.7808 311 36.1575 311H25.7889C21.1655 311 17.2406 307.612 16.5661 303.038L14.3534 288.035C14.1656 286.762 15.0456 285.577 16.319 285.389C16.4316 285.373 16.5453 285.364 16.6591 285.364Z"
            fill="#C1DEE2" />
    </g>
    <g opacity="0.2">
        <path fill-rule="evenodd" clip-rule="evenodd"
            d="M16.1865 343.585C16.1865 353.507 16.9696 361.551 27.4798 361.551C37.99 361.551 38.773 353.507 38.773 343.585"
            fill="url(#paint0_linear)" />
        <path fill-rule="evenodd" clip-rule="evenodd"
            d="M30.6066 337.395C30.2213 338.061 29.8778 338.74 29.5744 339.43C29.5637 338.01 29.6422 336.579 29.8567 335.129C30.2233 332.645 30.7832 330.174 31.3093 327.706C31.6874 325.933 31.6635 322.749 33.0985 321.336C33.492 321.03 33.5868 321.63 33.5868 321.89C33.5917 321.944 33.5857 320.828 33.2037 321.023C30.9334 322.195 30.1977 325.882 29.4709 327.728C28.4104 330.422 27.5081 333.176 27.1366 335.98C27.0427 336.688 26.9916 337.396 26.9798 338.102C26.9026 337.913 26.8301 337.723 26.7499 337.534C25.4396 334.461 23.6712 331.463 21.4657 328.697C20.9228 328.017 14.0967 321.303 13.5624 322.33C13.6151 322.48 13.7255 322.603 13.8938 322.702C13.9037 322.713 13.904 322.707 13.8982 322.69C14.2991 323.338 15.4389 324.338 15.794 324.905C16.6875 326.333 17.3819 327.849 18.0876 329.335C19.5787 332.476 20.9618 335.649 22.3026 338.828C22.6149 339.569 22.9402 340.305 23.2722 341.04C19.85 336.104 15.2846 331.623 9 329.058C11.1465 330.149 12.5538 332.204 14.0034 333.777C15.7517 335.674 17.5931 337.52 19.3447 339.416C21.4108 341.651 23.8417 344.006 25.829 346.48C27.7539 350.521 29.6244 354.566 30.779 358.814C30.3059 357.346 30.742 355.318 30.661 353.778C30.5967 352.552 30.4534 351.336 30.257 350.122C30.4998 350.67 30.709 351.218 30.8038 351.727C30.7173 350.872 30.6176 350.023 30.5105 349.178C30.7854 348.387 31.0553 347.649 31.2376 347.041C32.1721 343.922 33.2847 340.857 34.7999 337.87C36.202 335.106 37.8103 332.378 39.5627 329.732C40.3802 328.499 41.2089 327.27 42.0324 326.04C42.5714 325.234 43.0846 323.944 43.8351 323.172C38.9841 327.607 33.6842 332.073 30.6066 337.395Z"
            fill="url(#paint1_linear)" />
    </g>
    <g opacity="0.2">
        <path fill-rule="evenodd" clip-rule="evenodd"
            d="M412.047 57.5907C410.656 52.9524 407.391 49.3221 404.002 45.9958C397.404 39.5203 393.855 35.5166 391.503 26.0442C390.121 20.4732 388.713 14.5697 384.327 10.5279C381.133 7.58454 375.636 5.11163 371.365 7.21928C364.794 11.1411 363.029 19.1892 363.692 26.3958C364.513 35.3279 368.686 40.8354 376.702 44.1254C381.218 45.9782 384.221 48.4231 386.672 52.6832C388.634 56.0898 389.777 60.3555 392.242 63.4436C395.926 68.0599 400.537 70.1121 406.22 69.3453C400.897 59.5518 394.677 49.6663 387.176 41.4206C386.474 40.5917 382.332 37.4187 383.167 36.0059C384.088 34.4503 388.339 40.2938 388.309 40.2585C390.489 42.7607 392.507 45.4198 394.488 48.1044C394.482 48.107 394.477 48.1084 394.471 48.1112C396.511 50.8659 398.534 53.6612 400.519 56.4916C401.321 57.6888 402.103 58.9013 402.85 60.1443C403.948 61.9681 405.69 67.1446 407.486 68.2661C407.87 68.5058 408.225 68.6399 408.557 68.6951C409.783 70.7014 410.975 72.7238 412.109 74.77C415.07 80.1143 417.612 85.7572 418.779 91.7909C419.119 93.552 418.878 100.14 420.08 101.411C422.279 103.736 421.635 99.2583 421.503 97.9067C420.411 86.714 416.393 77.1783 410.558 67.7686C412.351 65.4278 412.61 59.47 412.047 57.5907Z"
            fill="#324854" />
        <path fill-rule="evenodd" clip-rule="evenodd"
            d="M336.766 62.9987C339.083 60.2686 344.653 59.8054 348.06 59.9882C352.276 60.2143 356.605 61.2404 360.616 62.4812C367.223 64.5249 373.642 68.2545 379.461 71.8643C380.162 72.2993 388.801 77.4942 388.036 78.4059C387.279 79.3091 378.798 73.1384 376.908 72.0748C372.875 69.8046 369.176 67.1199 364.73 65.6207C360.127 64.0681 355.259 63.4534 350.418 63.4958C349.797 63.5013 347.771 63.0682 347.727 63.9872C347.684 64.8861 351.037 64.4171 351.628 64.4225C354.07 64.4449 356.528 64.6748 358.935 65.098C363.446 65.8907 367.686 67.4879 371.549 69.9376C370.471 72.4437 367.887 73.5993 365.177 72.9722C362.834 72.4298 360.55 71.0928 358.256 70.7062C356.676 70.44 355.094 70.5984 353.562 71.0435C349.521 72.2179 347.19 74.6238 342.747 72.9502C339.263 71.6383 333.438 66.9248 336.766 62.9987Z"
            fill="#324854" />
        <path fill-rule="evenodd" clip-rule="evenodd"
            d="M326.801 19.0086C321.656 18.6334 315.91 22.7395 313.428 27.0125C311.427 30.4577 311.764 34.9817 313 38.6418C313.828 41.0923 315.634 44.586 318.645 44.62C322.414 44.6627 322.595 40.0556 322.668 37.3623C322.765 33.7817 323.222 30.6625 326.075 28.2218C326.739 27.6532 327.466 27.153 328.137 26.5923C329.189 25.7147 330.351 24.8161 330.486 23.3643C330.673 21.3612 329.53 21.0007 327.785 21.3729C327.488 21.4362 324.491 22.7664 324.935 21.715C325.07 21.3938 325.565 21.1393 326.189 20.9486C326.341 20.9323 326.495 20.9158 326.651 20.8993L326.963 20.8664C328.374 20.7196 329.819 20.5919 330.287 20.6936C336.266 21.9912 338.594 30.1841 339.212 35.3895C339.282 35.9789 339.338 36.5703 339.386 37.1627L340.483 37.1631C340.406 35.7718 340.306 34.3828 340.071 33.0072C339.19 27.8511 336.434 20.2781 330.391 19.4412C330.168 19.4101 329.348 19.4048 328.355 19.4624C327.884 19.2022 327.356 19.0448 326.801 19.0086Z"
            fill="#324854" />
    </g>
    <path fill-rule="evenodd" clip-rule="evenodd"
        d="M246.534 56.2488C250.913 66.0071 248.655 89.8205 242.033 91.0442C239.392 91.5322 233.98 89.5018 228.591 85.708L230.38 110.994L209.533 109.529L219.042 76.5016C215.368 71.5111 213.06 65.5495 213.963 59.1146C216.564 40.5728 242.155 46.4905 246.534 56.2488Z"
        fill="#915B3C" />
    <path fill-rule="evenodd" clip-rule="evenodd"
        d="M205.319 52.2739C204.692 51.5578 204.391 50.5773 204.137 49.6485C203.873 48.6837 203.618 47.7098 203.468 46.7143C203.167 44.7252 203.319 42.4727 204.819 41.0498C206.021 39.9088 207.736 39.4795 209.292 39.4693C210.328 39.4623 211.377 39.6814 212.343 40.0766C213.301 40.4685 214.101 41.1719 215.024 41.6384C215.207 39.5305 215.721 37.3475 216.915 35.6205C218.063 33.9588 219.769 33.1008 221.653 32.9743C223.586 32.8446 225.446 33.4266 227.096 34.4765C227.509 34.7394 227.917 35.0131 228.305 35.3177C228.629 35.5728 228.964 35.876 229.357 35.9981C229.796 36.1343 230.035 35.8917 230.347 35.586C230.713 35.2276 231.119 34.9177 231.545 34.6477C233.427 33.4538 235.814 33.0761 237.833 34.0126C238.763 34.4441 239.65 35.1282 240.239 36.0265C240.764 36.8272 241.092 38.062 241.853 38.6476C242.175 38.8962 242.435 38.6151 242.759 38.4166C243.245 38.1183 243.712 37.7843 244.203 37.4954C244.892 37.0895 245.628 36.8013 246.404 36.6779C247.539 36.4971 249.078 36.6662 249.296 38.1556C249.377 38.7151 249.244 39.2979 249.167 39.8504C249.06 40.609 248.952 41.3672 248.833 42.1238C248.742 42.6982 248.64 43.252 248.492 43.8119C248.413 44.1104 248.192 44.6617 248.3 44.9737C248.435 45.3638 249.197 45.2009 249.515 45.2364C250.143 45.3067 250.767 45.4618 251.331 45.7724C251.767 46.0133 252.22 46.3541 252.375 46.8861C252.47 47.2129 252.416 47.538 252.338 47.8618C252.244 48.2505 252.305 48.4645 252.327 48.8649C253.202 48.5066 256.198 47.7845 256.461 49.3302C256.548 49.8449 256.229 50.3971 255.986 50.8089C255.559 51.5312 255.021 52.181 254.474 52.7982C253.334 54.086 252.003 55.1724 250.589 56.0822C252.115 56.8944 252.381 58.9929 250.933 60.1304C250.293 60.6326 249.475 60.697 248.719 60.6089C248.442 60.5767 248.049 60.4415 247.827 60.4747C247.707 60.4925 247.574 60.5836 247.411 60.5834C246.334 60.5818 245.143 60.2381 244.112 59.9263C242.276 59.3706 240.571 58.3602 239.222 56.9089C238.877 56.5367 238.585 56.3159 238.086 56.286C237.649 56.2598 237.213 56.3497 236.776 56.3302C235.62 56.2788 234.619 55.6402 233.574 55.1886C233.407 56.6352 232.884 58.2047 232.201 59.4688C231.644 60.4996 230.625 60.5836 229.627 60.6075C226.438 60.684 223.282 60.1273 220.109 59.9091C223.132 60.8206 226.285 61.3302 229.271 62.3628C230.621 62.8294 229.506 63.6854 228.873 64.2887C227.83 65.282 227.019 66.5465 226.422 67.8968C225.057 65.8279 222.492 64.3479 220.097 64.786C217.452 65.2699 215.376 68.6658 216.861 71.3162C217.724 72.8548 219.427 73.545 220.833 74.2787C219.62 75.3785 219.225 77.1008 218.442 78.52C218.055 79.2199 217.527 80.0047 216.759 80.2042C216.474 80.278 216.148 80.2631 215.913 80.4748C215.622 80.7369 215.535 81.0466 215.172 81.2639C213.721 82.1313 211.565 81.9053 210.426 80.5606C209.397 79.3445 209.811 77.5636 210.817 76.4745C209.386 75.7549 206.755 74.7739 207.502 72.512C204.322 72.075 196.927 66.3356 201.479 62.8404C199.219 61.3417 197.284 57.9312 198.996 55.1646C200.314 53.0342 203.09 52.2353 205.319 52.2739Z"
        fill="#191847" />
    <path fill-rule="evenodd" clip-rule="evenodd"
        d="M192.352 185.595L257.029 294.039L305.518 385.719H315.962L234.718 185.595L192.352 185.595Z"
        fill="#784931" />
    <path fill-rule="evenodd" clip-rule="evenodd"
        d="M299.131 381.488C298.158 384.094 297.671 386.045 297.671 387.339C297.671 388.913 297.933 391.21 298.456 394.23C300.276 394.23 316.641 394.23 347.548 394.23C348.824 390 348.087 387.717 345.339 387.379C342.59 387.042 340.307 386.738 338.489 386.466L315.672 376.264C315.233 376.068 314.718 376.266 314.522 376.706C314.518 376.713 314.515 376.721 314.512 376.729L313.045 380.297C310.501 381.487 308.433 382.083 306.842 382.083C305.55 382.083 303.766 381.559 301.49 380.513L301.49 380.513C300.615 380.111 299.581 380.496 299.179 381.372C299.162 381.41 299.146 381.449 299.131 381.488Z"
        fill="#E4E4E4" />
    <path fill-rule="evenodd" clip-rule="evenodd"
        d="M292.051 371.038L312.192 364.928C303.368 338.47 292.552 309.355 279.745 277.582C266.939 245.808 253.185 215.146 238.484 185.595H181.597C197.942 222.976 215.269 256.941 233.58 287.49C251.89 318.04 271.38 345.889 292.051 371.038Z"
        fill="url(#paint2_linear)" />
    <path fill-rule="evenodd" clip-rule="evenodd"
        d="M188.101 185.595C181.997 223.703 170.224 272.39 169.113 273.893C168.372 274.895 141.705 283.856 89.113 300.778L91.3691 310.015C154.085 300.94 187.131 293.899 190.507 288.892C195.571 281.382 220.856 222.052 230.65 185.595H188.101Z"
        fill="#915B3C" />
    <path fill-rule="evenodd" clip-rule="evenodd"
        d="M107.6 292.794L111.574 307.67C158.482 311.796 187.224 308.815 197.799 298.726C208.374 288.637 220.426 250.927 233.956 185.595H179.712C171.14 239.093 166.347 266.965 165.335 269.21C164.322 271.456 145.077 279.317 107.6 292.794Z"
        fill="#3A83A3" />
    <path fill-rule="evenodd" clip-rule="evenodd"
        d="M91.6903 296.954C88.9581 296.447 86.9557 296.306 85.683 296.531C84.1348 296.805 81.921 297.463 79.0416 298.504C79.3574 300.3 82.1955 316.446 87.5559 346.94C91.9371 347.463 94.0552 346.339 93.9102 343.569C93.7652 340.798 93.6687 338.492 93.6207 336.651L99.6965 312.365C99.8135 311.898 99.5298 311.424 99.0628 311.307C99.0546 311.305 99.0464 311.303 99.0381 311.301L95.2751 310.475C93.6628 308.172 92.7187 306.235 92.4428 304.666C92.2187 303.391 92.4238 301.539 93.0581 299.112L93.0581 299.112C93.3018 298.179 92.7443 297.225 91.8128 296.982C91.7723 296.971 91.7314 296.962 91.6903 296.954Z"
        fill="#E4E4E4" />
    <path fill-rule="evenodd" clip-rule="evenodd"
        d="M147.777 146.729L162.394 152.139C138.747 183.884 126.124 200.647 124.525 202.429C120.925 206.438 122.332 215.059 122.649 219.531C119.661 219.745 118.889 217.942 118.121 216.004L117.989 215.671L117.855 215.337C117.014 213.281 115.896 211.315 111.89 211.662C110.565 211.777 109.26 211.985 107.978 212.209L107.466 212.3C107.04 212.376 106.618 212.452 106.198 212.527L105.695 212.615C100.595 213.497 95.8979 213.894 91.767 208.658C91.0593 207.761 90.8304 205.272 93.8489 204.493C95.7289 204.009 97.8453 203.391 99.9941 202.706L100.754 202.461L101.514 202.212C107.466 200.241 113.299 197.879 114.707 196.528C117.012 194.315 124.998 182.504 138.665 161.093L140.169 158.734C142.544 155.005 145.08 151.004 147.777 146.729ZM270.054 177.003L293.863 201.964C300.928 205.281 306.686 208.873 311.137 212.738C312.124 214.019 313.163 216.444 308.354 215.206L307.819 215.069C303.172 213.891 298.396 212.939 297.466 214.429C296.5 215.977 299.1 218.491 297.345 220.499C296.176 221.837 292.554 217.321 286.479 206.951L261.377 190.908L270.054 177.003Z"
        fill="#915B3C" />
    <path fill-rule="evenodd" clip-rule="evenodd"
        d="M233.207 96.8136C241.336 125.562 254.17 154.033 276.055 180.286C279.619 180.655 283.344 181.917 287.204 184.028C289.104 185.068 289.804 187.454 288.767 189.358C288.165 190.463 287.11 191.163 285.959 191.352C286.643 192.065 287.335 192.776 288.035 193.486L278.653 206.385C252.168 186.737 226.799 170.968 218.574 144.81C217.208 140.467 218.039 131.648 219.39 122.634L219.565 121.482C219.98 118.795 220.435 116.106 220.885 113.528L221.173 111.888C222.098 106.66 222.963 102.016 223.374 98.9613L233.207 96.8136Z"
        fill="#C5CFD6" />
    <path fill-rule="evenodd" clip-rule="evenodd"
        d="M174.934 185.655C201.371 193.392 222.591 197.146 238.593 196.916C240.575 196.887 241.948 188.585 241.456 186.165C233.8 148.47 229.224 121.057 233.526 96.5767C230.751 97.4578 226.268 96.8704 220.078 94.8146C198.568 117.022 185.631 144.579 174.934 185.655Z"
        fill="#191847" />
    <path fill-rule="evenodd" clip-rule="evenodd"
        d="M223.314 93.2776C213.753 130.831 238.809 220.941 212.565 289.472C186.109 290.667 152.885 266.511 115.023 274.417C118.661 258.151 130.836 241.699 143.494 225.301L145.015 223.334C145.522 222.678 146.03 222.022 146.537 221.367L148.058 219.401C155.939 209.201 163.632 199.032 169.194 188.954C168.429 187.929 168.179 186.552 168.647 185.261L169.543 182.794C170.147 181.129 171.761 180.124 173.441 180.219C173.957 178.981 174.43 177.744 174.859 176.508C176.803 170.901 177.384 165.114 177.808 159.359L177.903 158.032C177.95 157.368 177.996 156.705 178.044 156.044L178.14 154.722C178.393 151.336 178.705 147.981 179.328 144.701C163.466 154.054 147.517 172.228 131.48 199.223L116.124 191.581C117.146 189.389 118.186 187.229 119.243 185.101C117.561 183.708 116.233 178.441 117.949 177.903C119.721 177.347 121.545 177.058 123.418 177.029C146.148 134.823 176.196 106.331 213.562 91.5524L223.314 93.2776Z"
        fill="#DDE3E9" />
    <path fill-rule="evenodd" clip-rule="evenodd"
        d="M216.956 93.0168L210.134 105.872L217.248 117.672L207.782 124.281L221.388 161.161L203.428 123.58L212.762 116.878L206.44 106.444L216.956 93.0168Z"
        fill="black" fill-opacity="0.1" />
    <path fill-rule="evenodd" clip-rule="evenodd"
        d="M212.793 206.623C214.688 206.959 215.954 208.77 215.62 210.669C215.286 212.568 213.479 213.836 211.584 213.5C209.689 213.165 208.424 211.354 208.757 209.455C209.091 207.556 210.898 206.288 212.793 206.623ZM215.411 186.701C217.306 187.036 218.572 188.847 218.238 190.746C217.904 192.645 216.097 193.913 214.202 193.577C212.307 193.242 211.042 191.431 211.376 189.532C211.709 187.633 213.516 186.365 215.411 186.701ZM214.598 166.171C216.493 166.506 217.759 168.317 217.425 170.216C217.091 172.115 215.284 173.383 213.389 173.048C211.494 172.713 210.228 170.901 210.562 169.002C210.896 167.103 212.703 165.836 214.598 166.171Z"
        fill="#324854" fill-opacity="0.4" />
</svg>
