<svg width="31" height="32" viewBox="0 0 31 32" fill="none" xmlns="http://www.w3.org/2000/svg">
    <path
        d="M6.63525 9.7733C6.63525 10.9254 6.86218 12.0663 7.30308 13.1307C7.74398 14.1951 8.39022 15.1623 9.20489 15.977C10.0196 16.7916 10.9867 17.4379 12.0512 17.8788C13.1156 18.3197 14.2564 18.5466 15.4086 18.5466C16.5607 18.5466 17.7015 18.3197 18.766 17.8788C19.8304 17.4379 20.7975 16.7916 21.6122 15.977C22.4269 15.1623 23.0731 14.1951 23.514 13.1307C23.9549 12.0663 24.1819 10.9254 24.1819 9.7733C24.1819 8.62118 23.9549 7.48033 23.514 6.4159C23.0731 5.35148 22.4269 4.38432 21.6122 3.56964C20.7975 2.75496 19.8304 2.10873 18.766 1.66783C17.7015 1.22693 16.5607 1 15.4086 1C14.2564 1 13.1156 1.22693 12.0512 1.66783C10.9867 2.10873 10.0196 2.75496 9.20489 3.56964C8.39022 4.38432 7.74398 5.35148 7.30308 6.4159C6.86218 7.48033 6.63525 8.62118 6.63525 9.7733V9.7733Z"
        stroke="black" stroke-width="2" stroke-linecap="round" stroke-linejoin="round" />
    <path
        d="M29.8174 31C28.4348 28.3764 26.3621 26.1801 23.8228 24.6481C21.2836 23.116 18.3743 22.3063 15.4087 22.3063C12.4431 22.3063 9.53378 23.116 6.99457 24.6481C4.45536 26.1801 2.38264 28.3764 1 31"
        stroke="black" stroke-width="2" stroke-linecap="round" stroke-linejoin="round" />
</svg>
