<svg width="32" height="32" viewBox="0 0 32 32" fill="none" xmlns="http://www.w3.org/2000/svg">
    <path
        d="M32 5.07332C32 3.83564 31.5083 2.64865 30.6332 1.77348C29.758 0.898314 28.571 0.406648 27.3333 0.406648H4.66667C4.04767 0.406137 3.4348 0.529237 2.864 0.768727C2.29321 1.00822 1.77599 1.35928 1.34267 1.80131C1.26779 1.85356 1.20503 1.92132 1.15867 1.99998C0.410974 2.84909 -0.00103627 3.94193 1.95739e-06 5.07332V22.4067C0.0490285 23.682 0.502585 24.9087 1.29504 25.9093C2.08749 26.9098 3.17774 27.6322 4.408 27.972L19.2867 31.4667C19.6234 31.5472 19.9684 31.5884 20.3147 31.5893C21.1435 31.5992 21.9509 31.3254 22.6027 30.8133C23.0559 30.4427 23.4177 29.9727 23.66 29.4397C23.9023 28.9067 24.0186 28.3251 24 27.74V24.4067V14.816C23.9983 13.5758 23.5909 12.3703 22.8401 11.3832C22.0892 10.3962 21.0361 9.68191 19.8413 9.34932L5.408 5.36932C5.2815 5.3343 5.16312 5.2747 5.05965 5.19394C4.95617 5.11317 4.86962 5.01282 4.80493 4.8986C4.74024 4.78438 4.69867 4.65854 4.68262 4.52827C4.66656 4.39799 4.67632 4.26582 4.71134 4.13932C4.74635 4.01281 4.80595 3.89444 4.88671 3.79096C4.96748 3.68749 5.06783 3.60093 5.18205 3.53624C5.29627 3.47155 5.42211 3.42999 5.55238 3.41393C5.68266 3.39787 5.81483 3.40763 5.94134 3.44265C5.94134 3.44265 10.14 4.60265 10.608 4.73065C10.6362 4.73865 10.6654 4.74269 10.6947 4.74265H27.332C27.5972 4.74265 27.8516 4.84801 28.0391 5.03554C28.2266 5.22308 28.332 5.47743 28.332 5.74265C28.332 6.00786 28.2266 6.26222 28.0391 6.44975C27.8516 6.63729 27.5972 6.74265 27.332 6.74265H20.3533C20.2726 6.74248 20.1946 6.77161 20.1337 6.82462C20.0728 6.87763 20.0333 6.95093 20.0224 7.03091C20.0114 7.11089 20.0299 7.19211 20.0744 7.2595C20.1188 7.32688 20.1862 7.37585 20.264 7.39732L20.3787 7.42798C21.8972 7.84996 23.2479 8.73164 24.2453 9.95198C24.2776 9.99137 24.3183 10.023 24.3645 10.0444C24.4107 10.0659 24.4611 10.0767 24.512 10.076H27.3333C27.5986 10.076 27.8529 10.1813 28.0404 10.3689C28.228 10.5564 28.3333 10.8108 28.3333 11.076C28.3333 11.3412 28.228 11.5956 28.0404 11.7831C27.8529 11.9706 27.5986 12.076 27.3333 12.076H25.9493C25.8976 12.0762 25.8467 12.0883 25.8004 12.1115C25.7542 12.1346 25.7139 12.1681 25.6827 12.2093C25.6517 12.2518 25.6313 12.3011 25.6232 12.353C25.6151 12.4049 25.6195 12.4581 25.636 12.508C25.881 13.2525 26.0074 14.0309 26.0107 14.8146V24.072C26.0107 24.1604 26.0458 24.2452 26.1083 24.3077C26.1708 24.3702 26.2556 24.4053 26.344 24.4053H27.3333C28.571 24.4053 29.758 23.9137 30.6332 23.0385C31.5083 22.1633 32 20.9763 32 19.7386V5.07332ZM20.6667 20.4067C20.6667 20.9341 20.5103 21.4496 20.2173 21.8882C19.9242 22.3267 19.5078 22.6685 19.0205 22.8703C18.5332 23.0722 17.997 23.125 17.4798 23.0221C16.9625 22.9192 16.4873 22.6652 16.1144 22.2923C15.7414 21.9193 15.4875 21.4442 15.3846 20.9269C15.2817 20.4096 15.3345 19.8734 15.5363 19.3862C15.7382 18.8989 16.08 18.4824 16.5185 18.1894C16.957 17.8964 17.4726 17.74 18 17.74C18.7072 17.74 19.3855 18.0209 19.8856 18.521C20.3857 19.0211 20.6667 19.6994 20.6667 20.4067Z"
        fill="black" />
</svg>
