<svg width="32" height="33" viewBox="0 0 32 33" fill="none" xmlns="http://www.w3.org/2000/svg">
    <path
        d="M16.4911 18.2146C16.6045 18.2146 16.7155 18.2483 16.8099 18.3113C16.9042 18.3744 16.9778 18.464 17.0212 18.5688C17.0646 18.6737 17.076 18.7891 17.0538 18.9004C17.0317 19.0117 16.9771 19.1139 16.8968 19.1942C16.8166 19.2744 16.7143 19.3291 16.603 19.3512C16.4917 19.3734 16.3763 19.362 16.2715 19.3186C16.1666 19.2751 16.077 19.2016 16.0139 19.1072C15.9509 19.0128 15.9172 18.9019 15.9172 18.7884C15.9172 18.6362 15.9777 18.4903 16.0853 18.3827C16.1929 18.2751 16.3389 18.2146 16.4911 18.2146"
        stroke="black" stroke-width="2" stroke-linecap="round" stroke-linejoin="round" />
    <path fill-rule="evenodd" clip-rule="evenodd"
        d="M5.08666 0C5.07681 0 5.06696 0.000145495 5.05712 0.000436425C3.68193 0.0410788 2.37861 0.623902 1.43147 1.62177C1.41575 1.63832 1.40016 1.65497 1.38468 1.67171C1.36808 1.68866 1.35204 1.70624 1.33662 1.72442C0.452739 2.70707 -0.025846 3.99051 0.00107735 5.3151V22.828L0.00128805 22.8486C0.0299774 24.246 0.497468 25.5989 1.33758 26.716C2.1777 27.833 3.34787 28.6575 4.68246 29.0727C4.69397 29.0763 4.70555 29.0797 4.71719 29.0828L18.5582 32.846C19.2038 33.0272 19.8839 33.0489 20.5398 32.9091C21.1974 32.7689 21.811 32.4707 22.3275 32.0402C22.844 31.6098 23.2479 31.0599 23.5042 30.4383C23.7542 29.8322 23.8565 29.1756 23.8031 28.5225V24.9527H26.0722C26.8205 24.9607 27.5631 24.8213 28.2576 24.5425C28.9541 24.263 29.5886 23.8487 30.1246 23.3235C30.6607 22.7983 31.0879 22.1724 31.3816 21.4818C31.6754 20.7912 31.83 20.0494 31.8365 19.299L31.8365 19.299V19.2903V5.59054C31.8365 4.10784 31.2475 2.68586 30.1991 1.63743C29.1507 0.589002 27.7287 0 26.246 0H5.08666ZM2.00082 5.2818C1.98666 4.65546 2.15597 4.04377 2.48085 3.51898L18.5431 8.08449C19.4729 8.39404 20.2848 8.98269 20.8682 9.77045C21.4489 10.5545 21.7748 11.4976 21.8025 12.4723C21.8025 12.4737 21.8025 12.4751 21.8025 12.4764C21.8025 12.4882 21.8027 12.4999 21.8031 12.5115V23.9527V28.5662C21.8031 28.5975 21.8046 28.6287 21.8075 28.6598C21.84 29.0058 21.7878 29.3546 21.6553 29.6759C21.5228 29.9972 21.314 30.2814 21.047 30.5039C20.78 30.7264 20.4629 30.8806 20.1229 30.953C19.783 31.0254 19.4306 31.014 19.0961 30.9197L19.0961 30.9196L19.087 30.9171L5.26024 27.1579C4.33314 26.8657 3.52042 26.2909 2.93597 25.5138C2.35004 24.7347 2.02312 23.7917 2.00108 22.8173V5.3044L2.00082 5.2818ZM23.8031 13.4764V22.9527H26.0777H26.0894V22.9528C26.5767 22.9585 27.0604 22.868 27.5126 22.6865C27.9649 22.5049 28.3769 22.2359 28.725 21.8949C29.0731 21.5538 29.3505 21.1474 29.5412 20.699C29.7314 20.2517 29.8318 19.7714 29.8365 19.2855V13.4764H23.8031ZM29.8365 11.4764V5.59054C29.8365 4.63827 29.4583 3.725 28.7849 3.05165C28.1115 2.37829 27.1983 2 26.246 2H5.10243C4.94335 2.00538 4.78587 2.02254 4.63114 2.05095L19.1103 6.16648C19.1232 6.17016 19.1361 6.17411 19.1489 6.17831C20.4796 6.61539 21.6419 7.45459 22.4755 8.58017C23.1114 9.43889 23.5321 10.432 23.7092 11.4764H29.8365Z"
        fill="black" />
</svg>
